<?xml version="1.0" encoding="UTF-8" standalone="no"?>
<!DOCTYPE svg PUBLIC "-//W3C//DTD SVG 1.1//EN" "http://www.w3.org/Graphics/SVG/1.1/DTD/svg11.dtd">
<svg width="100%" height="100%" viewBox="0 0 73 80" version="1.1" xmlns="http://www.w3.org/2000/svg" xmlns:xlink="http://www.w3.org/1999/xlink" xml:space="preserve" xmlns:serif="http://www.serif.com/" style="fill-rule:evenodd;clip-rule:evenodd;stroke-linejoin:round;stroke-miterlimit:2;">
    <g transform="matrix(0.0892857,0,0,0.0892857,-9.68372,-5.71429)">
        <path d="M394,569C394,602.333 405.667,630.667 429,654C452.333,677.333 480.667,689 514,689C546.667,689 574.667,677.333 598,654C621.333,630.667 633,602.333 633,569C633,552.333 627,533.667 615,513C602.333,492.333 588.5,469.833 573.5,445.5C558.5,421.167 544.667,395.667 532,369C520,343 514,315.667 514,287C514,315.667 507.667,343.333 495,370C482.333,396.667 468.667,422 454,446C439.333,470 425.667,492.333 413,513C400.333,533.667 394,552.333 394,569ZM570,474C582,492 592.667,509.333 602,526C611.333,542.667 616,557 616,569C616,597 606,621 586,641C566,661 542,671 514,671C486,671 462,661 442,641C422,621 412,597 412,569C412,557.667 416.667,543.667 426,527C435.333,510.333 445.667,493 457,475C467,459 477.167,442.333 487.5,425C497.833,407.667 506.667,389.667 514,371C521.333,389.667 530,407.5 540,424.5C550,441.5 560,458 570,474ZM889,231C854.333,224.333 820.333,215 787,203C753,191 721.5,177.833 692.5,163.5C663.5,149.167 637,134.333 613,119C589,103.667 569.333,89 554,75C548,70.333 541.5,67.333 534.5,66C527.5,64.667 521.667,64 517,64C513.667,64 508,64.667 500,66C492,67.333 485,70.667 479,76C463,90 443,104.667 419,120C395,135.333 368.333,150.167 339,164.5C309.667,178.833 278.333,191.667 245,203C211.667,215 177.667,224.333 143,231C131.667,233.667 122.833,242.667 116.5,258C110.167,273.333 107.667,285.667 109,295C109.667,302.333 110.5,310 111.5,318C112.5,326 113.333,334.333 114,343C116.667,367.667 119.667,395 123,425C127,455 133.167,486.5 141.5,519.5C149.833,552.5 161.667,586.333 177,621C191.667,655 211,688.667 235,722C251.667,744.667 270.333,767.333 291,790C311.667,812.667 333.333,834.167 356,854.5C378.667,874.833 401.667,893.667 425,911C449,928.333 472,943 494,955C496.667,957 500,958.333 504,959C508,959.667 512.667,960 518,960C523.333,960 527.667,959.5 531,958.5C534.333,957.5 536.667,956.667 538,956C560.667,943.333 583.667,928.333 607,911C631,893.667 654.333,874.833 677,854.5C699.667,834.167 721.333,812.667 742,790C762.667,767.333 781,744.667 797,722C819.667,691.333 837.667,659 851,625C865,591 876.167,557.167 884.5,523.5C892.833,489.833 899,457.333 903,426C907,394.667 910.333,366.333 913,341C914.333,332.333 915.333,324.333 916,317C916.667,309.667 917.667,302.333 919,295C919.667,287 918,275 914,259C910,243 901.667,233.667 889,231ZM876,290C875.333,296.667 874.5,304 873.5,312C872.5,320 871.667,328 871,336C868.333,360.667 865,388 861,418C857,448 851.167,478.833 843.5,510.5C835.833,542.167 825.667,574 813,606C799.667,638 782.667,668.333 762,697C747.333,717.667 730.333,738.667 711,760C691.667,781.333 671.333,801.667 650,821C628.667,840.333 606.667,858.333 584,875C562,891.667 540.667,905.667 520,917L513,917C492.333,905.667 471,891.667 449,875C426.333,858.333 404.333,840.333 383,821C361.667,801.667 341.333,781.333 322,760C302,738.667 284.667,717.667 270,697C247.333,666.333 229,635 215,603C201.667,571 191,539.667 183,509C175,478.333 169.333,448.333 166,419C162,390.333 158.667,363.667 156,339C155.333,330.333 154.667,321.833 154,313.5C153.333,305.167 152.333,297.333 151,290C151,288 151.667,285.167 153,281.5C154.333,277.833 155.667,274.667 157,272C193.667,264.667 229.333,254.667 264,242C298,230 330.167,216.5 360.5,201.5C390.833,186.5 418.333,171 443,155C467.667,139 488.667,123.667 506,109C506.667,108.333 508,107.833 510,107.5C512,107.167 514.333,107 517,107L523.5,107C530.5,107 531,107 525,107C542.333,122.333 563.333,138 588,154C612.667,170 640,185.5 670,200.5C700,215.5 732.333,229.333 767,242C801,254 836.333,264 873,272C874.333,274.667 875.333,277.667 876,281C876.667,284.333 876.667,287.333 876,290Z" style="fill:rgb(226,0,116);fill-rule:nonzero;"/>
    </g>
</svg>
