<?xml version="1.0" encoding="UTF-8" standalone="no"?>
<!DOCTYPE svg PUBLIC "-//W3C//DTD SVG 1.1//EN" "http://www.w3.org/Graphics/SVG/1.1/DTD/svg11.dtd">
<svg width="100%" height="100%" viewBox="0 0 80 80" version="1.1" xmlns="http://www.w3.org/2000/svg" xmlns:xlink="http://www.w3.org/1999/xlink" xml:space="preserve" xmlns:serif="http://www.serif.com/" style="fill-rule:evenodd;clip-rule:evenodd;stroke-linejoin:round;stroke-miterlimit:2;">
    <g transform="matrix(2.22222,0,0,2.22222,-22.6756,-41.4889)">
        <g id="Layer-1" serif:id="Layer 1">
            <path id="path872" d="M28.204,54.67C18.304,54.67 10.204,46.57 10.204,36.67C10.204,26.77 18.304,18.67 28.204,18.67C38.104,18.67 46.204,26.77 46.204,36.67C46.204,46.57 38.104,54.67 28.204,54.67ZM28.204,20.47C19.294,20.47 12.004,27.76 12.004,36.67C12.004,45.58 19.294,52.87 28.204,52.87C37.114,52.87 44.404,45.58 44.404,36.67C44.404,27.76 37.114,20.47 28.204,20.47ZM43.954,54.67L38.554,54.67C38.284,54.67 38.104,54.49 38.104,54.22C38.104,53.95 38.284,53.77 38.554,53.77L43.954,53.77C44.674,53.77 45.304,53.14 45.304,52.42L45.304,47.02C45.304,46.75 45.484,46.57 45.754,46.57C46.024,46.57 46.204,46.75 46.204,47.02L46.204,52.42C46.204,53.68 45.214,54.67 43.954,54.67ZM45.754,26.77C45.484,26.77 45.304,26.59 45.304,26.32L45.304,20.92C45.304,20.2 44.674,19.57 43.954,19.57L38.554,19.57C38.284,19.57 38.104,19.39 38.104,19.12C38.104,18.85 38.284,18.67 38.554,18.67L43.954,18.67C45.214,18.67 46.204,19.66 46.204,20.92L46.204,26.32C46.204,26.59 46.024,26.77 45.754,26.77ZM17.854,19.57L12.454,19.57C11.734,19.57 11.104,20.2 11.104,20.92L11.104,26.32C11.104,26.59 10.924,26.77 10.654,26.77C10.384,26.77 10.204,26.59 10.204,26.32L10.204,20.92C10.204,19.66 11.194,18.67 12.454,18.67L17.854,18.67C18.124,18.67 18.304,18.85 18.304,19.12C18.304,19.39 18.124,19.57 17.854,19.57ZM10.654,46.57C10.924,46.57 11.104,46.75 11.104,47.02L11.104,52.42C11.104,53.14 11.734,53.77 12.454,53.77L17.854,53.77C18.124,53.77 18.304,53.95 18.304,54.22C18.304,54.49 18.124,54.67 17.854,54.67L12.454,54.67C11.194,54.67 10.204,53.68 10.204,52.42L10.204,47.02C10.204,46.75 10.384,46.57 10.654,46.57ZM37.204,40.27C37.204,39.91 37.294,39.64 37.474,39.37L32.704,34.6C32.434,34.78 32.164,34.87 31.804,34.87C31.444,34.87 31.174,34.78 30.904,34.6L26.134,39.28C26.314,39.55 26.404,39.91 26.404,40.27C26.404,41.26 25.594,42.07 24.604,42.07C23.614,42.07 22.804,41.26 22.804,40.27C22.804,39.91 22.894,39.64 23.074,39.37L18.304,34.6C18.034,34.78 17.764,34.87 17.404,34.87C16.414,34.87 15.604,34.06 15.604,33.07C15.604,32.08 16.414,31.27 17.404,31.27C18.394,31.27 19.204,32.08 19.204,33.07C19.204,33.43 19.114,33.7 18.934,33.97L23.704,38.74C23.974,38.56 24.244,38.47 24.604,38.47C24.964,38.47 25.234,38.56 25.504,38.74L30.274,33.97C30.094,33.7 30.004,33.43 30.004,33.07C30.004,32.08 30.814,31.27 31.804,31.27C32.794,31.27 33.604,32.08 33.604,33.07C33.604,33.43 33.514,33.7 33.334,33.97L38.104,38.74C38.374,38.56 38.644,38.47 39.004,38.47C39.994,38.47 40.804,39.28 40.804,40.27C40.804,41.26 39.994,42.07 39.004,42.07C38.014,42.07 37.204,41.26 37.204,40.27ZM17.404,32.17C16.864,32.17 16.504,32.53 16.504,33.07C16.504,33.61 16.864,33.97 17.404,33.97C17.944,33.97 18.304,33.61 18.304,33.07C18.304,32.53 17.944,32.17 17.404,32.17ZM23.704,40.27C23.704,40.81 24.064,41.17 24.604,41.17C25.144,41.17 25.504,40.81 25.504,40.27C25.504,39.73 25.144,39.37 24.604,39.37C24.064,39.37 23.704,39.73 23.704,40.27ZM31.804,32.17C31.264,32.17 30.904,32.53 30.904,33.07C30.904,33.52 31.174,33.79 31.624,33.97L31.804,33.79L31.984,33.97C32.344,33.88 32.704,33.52 32.704,33.07C32.704,32.53 32.344,32.17 31.804,32.17ZM39.904,40.27C39.904,39.73 39.544,39.37 39.004,39.37C38.464,39.37 38.104,39.73 38.104,40.27C38.104,40.81 38.464,41.17 39.004,41.17C39.544,41.17 39.904,40.81 39.904,40.27Z" style="fill:rgb(226,0,116);fill-rule:nonzero;"/>
        </g>
    </g>
</svg>
