<?xml version="1.0" encoding="UTF-8" standalone="no"?>
<!DOCTYPE svg PUBLIC "-//W3C//DTD SVG 1.1//EN" "http://www.w3.org/Graphics/SVG/1.1/DTD/svg11.dtd">
<svg width="100%" height="100%" viewBox="0 0 80 58" version="1.1" xmlns="http://www.w3.org/2000/svg" xmlns:xlink="http://www.w3.org/1999/xlink" xml:space="preserve" xmlns:serif="http://www.serif.com/" style="fill-rule:evenodd;clip-rule:evenodd;stroke-linejoin:round;stroke-miterlimit:2;">
    <g transform="matrix(-1.56863,0,0,1.56863,80,-0.0196078)">
        <g>
            <path d="M49.841,34.688C48.682,34.398 46.074,26.594 44.915,18.5C44.915,17.922 44.915,17.633 44.625,17.055C44.915,15.609 45.494,12.43 46.364,9.539C46.364,9.25 46.364,8.672 46.074,8.672C45.494,8.672 45.205,8.961 45.205,9.25C44.915,10.695 44.335,12.43 44.045,13.875C42.886,7.516 40.858,0 37.67,0C34.773,0 32.744,6.359 31.585,12.719C30.426,7.516 28.398,1.156 25.79,1.156C23.182,1.156 20.864,8.961 19.705,14.164C18.546,7.516 16.517,0 13.33,0C10.432,0 8.114,7.516 6.955,13.875C6.665,12.43 6.375,10.695 5.795,9.25C5.795,8.961 5.506,8.672 5.216,8.672C4.926,8.672 4.636,9.25 4.636,9.539C5.506,12.43 6.085,15.32 6.375,17.055C6.375,17.344 6.085,17.922 6.085,18.5C4.926,26.594 2.608,34.398 1.159,34.688C0.58,34.688 0,35.266 0,35.844C0,36.422 0.58,37 1.159,37C4.057,37 6.375,29.773 7.534,23.414C8.693,28.906 10.722,35.844 13.33,35.844C15.938,35.844 17.966,28.906 19.125,23.703C20.574,30.063 22.602,37 25.5,37C28.688,37 30.716,29.195 32.165,22.836C33.034,28.328 35.063,35.844 37.96,35.844C40.278,35.844 42.307,29.195 43.466,23.703C44.915,30.063 46.943,37 49.841,37C50.42,37 51,36.422 51,35.844C51,35.266 50.42,34.688 49.841,34.688ZM13.33,34.688C11.881,34.688 9.563,27.75 8.114,20.523C8.114,19.945 8.403,19.367 8.403,18.789C9.852,10.406 12.171,2.891 13.33,2.313C14.778,2.891 17.097,10.406 18.256,18.789C18.256,19.367 18.546,19.945 18.546,20.813C17.097,27.75 15.068,34.688 13.33,34.688ZM25.5,34.688C24.341,34.398 22.023,26.594 20.574,18.5L20.574,17.633C21.733,10.406 24.051,2.602 25.79,2.602C27.239,2.602 29.557,9.25 30.716,16.188C30.716,16.766 30.426,17.633 30.426,18.5C29.267,26.594 26.949,34.398 25.5,34.688ZM37.96,34.688C36.222,34.688 33.903,27.172 32.744,19.367L32.744,18.789C33.903,10.406 36.511,2.891 37.67,2.313C39.119,2.891 41.438,10.406 42.597,18.789C42.597,19.367 42.886,19.945 42.886,20.523C41.727,27.75 39.409,34.688 37.96,34.688Z" style="fill:rgb(226,0,116);"/>
        </g>
    </g>
</svg>
