<?xml version="1.0" encoding="UTF-8" standalone="no"?>
<!DOCTYPE svg PUBLIC "-//W3C//DTD SVG 1.1//EN" "http://www.w3.org/Graphics/SVG/1.1/DTD/svg11.dtd">
<svg width="100%" height="100%" viewBox="0 0 80 58" version="1.1" xmlns="http://www.w3.org/2000/svg" xmlns:xlink="http://www.w3.org/1999/xlink" xml:space="preserve" xmlns:serif="http://www.serif.com/" style="fill-rule:evenodd;clip-rule:evenodd;stroke-linejoin:round;stroke-miterlimit:2;">
    <g transform="matrix(1.37931,0,0,1.37931,-402.759,-229.031)">
        <path d="M335.83,176.5C333.852,170.266 327.92,166 321,166C314.08,166 308.148,170.266 306.17,176.5C298.261,177.484 292,184.047 292,192.25C292,200.781 299.25,208 307.818,208L334.182,208C343.08,208 350,200.781 350,192.25C350,184.047 343.739,177.484 335.83,176.5ZM334.182,205.375L307.818,205.375C300.568,205.375 294.636,199.469 294.636,192.25C294.636,185.359 299.58,179.781 306.5,179.125C307.489,179.125 308.148,178.469 308.477,177.484C310.455,172.234 315.398,168.625 321,168.625C326.602,168.625 331.545,172.234 333.523,177.484C333.852,178.469 334.511,179.125 335.83,179.125C342.42,179.781 347.364,185.359 347.364,192.25C347.364,199.469 341.432,205.375 334.182,205.375Z" style="fill:rgb(226,0,116);"/>
        <path d="M324.333,191L308.667,191C308.333,191 308,191.25 308,191.5C308,191.75 308.333,192 308.667,192L324.333,192C324.667,192 325,191.75 325,191.5C325,191.25 324.667,191 324.333,191Z" style="fill:rgb(226,0,116);"/>
        <path d="M324.333,195L308.667,195C308.333,195 308,195.25 308,195.5C308,195.75 308.333,196 308.667,196L324.333,196C324.667,196 325,195.75 325,195.5C325,195.25 324.667,195 324.333,195Z" style="fill:rgb(226,0,116);"/>
        <path d="M331.5,190C329.75,190 328,191.4 328,193.5C328,195.25 329.75,197 331.5,197C333.6,197 335,195.25 335,193.5C335,191.4 333.6,190 331.5,190ZM331.5,195.6C330.45,195.6 329.4,194.55 329.4,193.5C329.4,192.45 330.45,191.4 331.5,191.4C332.55,191.4 333.6,192.45 333.6,193.5C333.6,194.55 332.55,195.6 331.5,195.6Z" style="fill:rgb(226,0,116);"/>
        <path d="M331.483,185L310.517,185C305.931,185 302,188.596 302,193.5C302,198.077 305.931,202 310.517,202L331.483,202C336.069,202 340,198.077 340,193.5C340,188.596 336.069,185 331.483,185ZM331.483,200.692L310.517,200.692C306.586,200.692 303.31,197.423 303.31,193.5C303.31,189.577 306.586,186.308 310.517,186.308L331.483,186.308C335.414,186.308 338.69,189.577 338.69,193.5C338.69,197.423 335.414,200.692 331.483,200.692Z" style="fill:rgb(226,0,116);"/>
    </g>
</svg>
