<?xml version="1.0" encoding="UTF-8" standalone="no"?>
<!DOCTYPE svg PUBLIC "-//W3C//DTD SVG 1.1//EN" "http://www.w3.org/Graphics/SVG/1.1/DTD/svg11.dtd">
<svg width="100%" height="100%" viewBox="0 0 80 59" version="1.1" xmlns="http://www.w3.org/2000/svg" xmlns:xlink="http://www.w3.org/1999/xlink" xml:space="preserve" xmlns:serif="http://www.serif.com/" style="fill-rule:evenodd;clip-rule:evenodd;stroke-linejoin:round;stroke-miterlimit:2;">
    <g transform="matrix(1.81818,0,0,1.81818,-3.63636,-14.5364)">
        <path d="M31.5,19.1C30.021,14.856 25.994,11.995 21.5,11.995C17.006,11.995 12.979,14.856 11.5,19.1C6.148,19.584 1.999,24.126 2,29.5C2.044,35.281 6.819,40.011 12.6,40L30.3,40C36.113,40.05 40.94,35.313 41,29.5C41.001,24.126 36.852,19.584 31.5,19.1ZM30.4,38L12.6,38C7.916,38.011 4.044,34.184 4,29.5C4.013,25.155 7.372,21.49 11.7,21.1C12.46,21.01 13.114,20.51 13.4,19.8C14.672,16.383 17.954,14.103 21.6,14.103C25.246,14.103 28.528,16.383 29.8,19.8C30.086,20.51 30.74,21.01 31.5,21.1C35.811,21.526 39.15,25.168 39.2,29.5C38.994,34.195 35.099,37.957 30.4,38Z" style="fill:rgb(226,0,116);fill-rule:nonzero;"/>
        <path d="M36.4,15.1C34.754,10.808 30.597,7.97 26,8C25.157,7.995 24.317,8.096 23.5,8.3C21.785,8.716 20.181,9.501 18.8,10.6C18.624,10.789 18.584,11.069 18.7,11.3C18.889,11.476 19.169,11.516 19.4,11.4C20.634,10.35 22.113,9.627 23.7,9.3C24.449,9.096 25.223,8.995 26,9C30.283,8.983 34.139,11.674 35.6,15.7C35.7,15.9 35.8,16 36,16C41.071,16.475 44.994,20.783 44.994,25.877C44.994,28.875 43.635,31.718 41.3,33.6C41.124,33.789 41.084,34.069 41.2,34.3C41.296,34.423 41.443,34.497 41.6,34.5C41.71,34.513 41.82,34.476 41.9,34.4C44.483,32.336 45.993,29.206 46,25.9C45.924,20.441 41.812,15.816 36.4,15.1Z" style="fill:rgb(226,0,116);fill-rule:nonzero;"/>
    </g>
</svg>
