<?xml version="1.0" encoding="UTF-8" standalone="no"?>
<!DOCTYPE svg PUBLIC "-//W3C//DTD SVG 1.1//EN" "http://www.w3.org/Graphics/SVG/1.1/DTD/svg11.dtd">
<svg width="100%" height="100%" viewBox="0 0 80 80" version="1.1" xmlns="http://www.w3.org/2000/svg" xmlns:xlink="http://www.w3.org/1999/xlink" xml:space="preserve" xmlns:serif="http://www.serif.com/" style="fill-rule:evenodd;clip-rule:evenodd;stroke-linejoin:round;stroke-miterlimit:2;">
    <g transform="matrix(-1.77778,0,0,1.77778,80,0)">
        <g>
            <path d="M43.977,29.148C43.466,29.148 42.955,29.659 42.955,30.171L42.955,39.631C42.955,41.165 41.932,42.955 40.142,42.955L30.938,42.955C30.426,42.955 29.915,43.466 29.915,43.977C29.915,44.489 30.426,45 30.938,45L40.142,45C42.955,45 45,42.443 45,39.631L45,30.171C45,29.659 44.489,29.148 43.977,29.148ZM1.023,14.83C1.534,14.83 2.045,14.574 2.045,13.807L2.045,4.602C2.045,3.068 3.58,2.045 5.369,2.045L14.574,2.045C15.085,2.045 15.597,1.534 15.597,1.023C15.597,0.511 15.085,0 14.574,0L5.369,0C2.557,0 0,1.79 0,4.602L0,13.807C0,14.574 0.511,14.83 1.023,14.83ZM14.574,42.955L5.369,42.955C3.58,42.955 2.045,41.165 2.045,39.631L2.045,30.171C2.045,29.659 1.534,29.148 1.023,29.148C0.511,29.148 0,29.659 0,30.171L0,39.631C0,42.443 2.557,45 5.369,45L14.574,45C15.085,45 15.597,44.489 15.597,43.977C15.597,43.466 15.085,42.955 14.574,42.955ZM40.142,0L30.938,0C30.426,0 29.915,0.511 29.915,1.023C29.915,1.534 30.426,2.045 30.938,2.045L40.142,2.045C41.932,2.045 42.955,3.068 42.955,4.602L42.955,13.807C42.955,14.574 43.466,14.83 43.977,14.83C44.489,14.83 45,14.574 45,13.807L45,4.602C45,1.79 42.955,0 40.142,0ZM38.864,20.199L24.801,6.136C24.29,5.625 23.523,5.114 22.756,5.114C21.989,5.114 21.222,5.625 20.71,6.136L6.648,20.199C5.625,21.222 5.625,22.756 6.648,24.034L20.966,38.097C21.477,38.608 21.989,38.864 22.756,38.864C23.523,38.864 24.034,38.608 24.546,38.097L38.864,24.034C39.886,22.756 39.886,21.222 38.864,20.199ZM37.841,22.756L23.523,37.074C23.267,37.33 23.011,37.585 22.756,37.585C22.5,37.585 22.244,37.33 21.989,37.074L7.67,22.756C7.159,22.5 7.159,21.733 7.67,21.222L21.733,7.159C21.989,6.903 22.244,6.648 22.756,6.648C23.267,6.648 23.523,6.903 23.778,7.159L37.841,21.222C38.352,21.733 38.352,22.5 37.841,22.756Z" style="fill:rgb(226,0,116);"/>
        </g>
    </g>
</svg>
