<?xml version="1.0" encoding="UTF-8" standalone="no"?>
<!DOCTYPE svg PUBLIC "-//W3C//DTD SVG 1.1//EN" "http://www.w3.org/Graphics/SVG/1.1/DTD/svg11.dtd">
<svg width="100%" height="100%" viewBox="0 0 80 59" version="1.1" xmlns="http://www.w3.org/2000/svg" xmlns:xlink="http://www.w3.org/1999/xlink" xml:space="preserve" xmlns:serif="http://www.serif.com/" style="fill-rule:evenodd;clip-rule:evenodd;stroke-linejoin:round;stroke-miterlimit:2;">
    <g transform="matrix(1.42857,0,0,1.42857,-1358.57,-724.271)">
        <path d="M994.73,516.08C992.718,510.632 987.388,507 981.454,507C980.348,507 979.342,507.101 978.236,507.303C976.023,507.807 974.011,508.816 972.302,510.329C972,510.531 972,510.935 972.201,511.237C972.402,511.439 972.805,511.54 973.106,511.237C974.716,509.926 976.526,509.018 978.537,508.614C979.543,508.312 980.448,508.211 981.454,508.211C986.986,508.211 991.914,511.742 993.724,516.887C993.724,517.089 993.925,517.291 994.227,517.291C1000.76,517.997 1005.69,523.445 1005.69,530.003C1005.69,533.837 1003.98,537.469 1000.97,539.89C1000.66,540.092 1000.66,540.496 1000.86,540.798C1000.97,541 1001.17,541 1001.37,541C1001.47,541 1001.67,541 1001.77,540.899C1005.09,538.175 1007,534.24 1007,530.003C1007,522.941 1001.77,516.988 994.73,516.08" style="fill:rgb(226,0,116);"/>
        <path d="M988.955,521.127C987.032,515.854 981.972,512 976,512C970.028,512 964.968,515.854 963.146,521.127C956.263,521.837 951,527.617 951,534.513C951,542.017 957.073,548 964.664,548L987.437,548C994.927,548 1001,542.017 1001,534.513C1001,527.617 995.737,521.837 988.955,521.127M987.437,545.465L964.664,545.465C958.49,545.465 953.53,540.597 953.53,534.513C953.53,528.935 957.781,524.27 963.449,523.662C964.36,523.561 965.17,522.851 965.575,521.938C967.093,517.577 971.344,514.637 976,514.637C980.757,514.637 984.907,517.577 986.526,521.938C986.83,522.851 987.64,523.561 988.652,523.662C994.219,524.27 998.47,528.935 998.47,534.513C998.47,540.597 993.51,545.465 987.437,545.465" style="fill:rgb(226,0,116);"/>
        <path d="M984,534.5C984,533.672 984.672,533 985.5,533C986.328,533 987,533.672 987,534.5C987,535.328 986.328,536 985.5,536C984.672,536 984,535.328 984,534.5Z" style="fill:rgb(226,0,116);"/>
        <path d="M979.309,534L965.691,534C965.296,534 965,534.167 965,534.5C965,534.75 965.296,535 965.691,535L979.309,535C979.704,535 980,534.75 980,534.5C980,534.167 979.704,534 979.309,534" style="fill:rgb(226,0,116);"/>
        <path d="M986.246,529L965.754,529C962.524,529 960,531.509 960,534.5C960,537.588 962.524,540 965.754,540L986.246,540C989.375,540 992,537.588 992,534.5C992,531.509 989.375,529 986.246,529M986.246,538.842L965.754,538.842C963.23,538.842 961.211,536.912 961.211,534.5C961.211,532.184 963.23,530.254 965.754,530.254L986.246,530.254C988.669,530.254 990.688,532.184 990.688,534.5C990.688,536.912 988.669,538.842 986.246,538.842" style="fill:rgb(226,0,116);"/>
    </g>
</svg>
