<?xml version="1.0" encoding="UTF-8" standalone="no"?>
<!DOCTYPE svg PUBLIC "-//W3C//DTD SVG 1.1//EN" "http://www.w3.org/Graphics/SVG/1.1/DTD/svg11.dtd">
<svg width="100%" height="100%" viewBox="0 0 80 57" version="1.1" xmlns="http://www.w3.org/2000/svg" xmlns:xlink="http://www.w3.org/1999/xlink" xml:space="preserve" xmlns:serif="http://www.serif.com/" style="fill-rule:evenodd;clip-rule:evenodd;stroke-linejoin:round;stroke-miterlimit:2;">
    <g transform="matrix(1.45455,0,0,1.45455,-1403.64,-717.105)">
        <path d="M985.625,515.852L987.812,514.328L991.562,516.461L995.938,504.273L981.562,510.672L984.688,512.805L985.625,515.852ZM993.75,506.711L990.625,514.633L988.438,513.109L987.812,513.109C987.5,513.109 987.5,513.109 987.188,513.414L986.562,513.719L985.938,512.195C985.938,512.195 985.625,511.891 985.625,511.586L984.062,510.672L993.75,506.711ZM966.25,516.766C966.875,516.766 967.5,516.156 967.5,515.547C967.5,514.633 967.812,513.414 968.438,512.5C968.75,511.281 969.375,510.367 970.312,509.453C970.625,508.844 970.625,507.93 970,507.625C969.688,507.32 968.75,507.32 968.438,507.93C967.5,508.844 966.562,510.062 965.938,511.281C965.625,512.805 965.312,514.023 965,515.547C965,516.156 965.312,516.766 966.25,516.766ZM970.625,525.297C970.312,524.688 969.688,524.078 969.375,523.469C968.75,522.555 968.125,521.641 968.125,520.727C967.812,520.117 967.188,519.508 966.562,519.812C965.625,520.117 965.312,520.727 965.625,521.336C965.938,522.555 966.562,523.773 967.188,524.688C967.5,525.602 968.125,526.211 968.75,527.125C969.375,527.734 970,528.039 970.625,528.648C970.938,528.953 971.25,528.953 971.562,528.953C971.875,528.953 972.188,528.648 972.5,528.344C972.812,528.039 972.812,527.125 972.188,526.82C971.875,526.211 971.25,525.906 970.625,525.297ZM1020,517.07C1020,509.758 1014.38,503.359 1006.88,502.445C1004.69,496.656 998.75,493 992.5,493C986.25,493 980.312,496.656 978.125,502.445C976.25,502.75 974.375,503.359 972.812,504.273C972.188,504.578 971.875,505.188 972.188,505.797C972.5,506.406 973.438,506.711 974.062,506.406C975.625,505.492 977.188,504.883 979.062,504.578C979.375,504.578 980,504.273 980,503.969C981.875,498.789 986.875,495.438 992.5,495.438C998.125,495.438 1003.12,498.789 1004.69,503.969C1005,504.273 1005.31,504.578 1005.94,504.578C1012.5,505.492 1017.5,510.672 1017.5,517.07C1017.5,524.078 1011.56,529.562 1004.38,529.562L995,529.562C990,528.953 986.25,524.992 986.25,520.117C986.25,519.203 986.562,518.289 986.562,517.375L984.375,516.766C984.062,517.984 983.75,518.898 983.75,520.117C983.75,525.906 988.125,530.781 993.75,531.695C994.062,532 994.062,532 994.375,532L1005.62,532C1013.75,531.391 1020,524.992 1020,517.07ZM985,529.562L980.625,529.562C979.062,529.562 977.812,529.258 976.562,528.953C975.938,528.648 975.312,529.258 975,529.867C974.688,530.477 975,531.086 975.938,531.391C977.188,531.695 979.062,532 980.625,532L985,532C985.625,532 986.25,531.391 986.25,530.781C986.25,530.172 985.625,529.562 985,529.562Z" style="fill:rgb(226,0,116);"/>
    </g>
</svg>
