<?xml version="1.0" encoding="UTF-8" standalone="no"?>
<!DOCTYPE svg PUBLIC "-//W3C//DTD SVG 1.1//EN" "http://www.w3.org/Graphics/SVG/1.1/DTD/svg11.dtd">
<svg width="100%" height="100%" viewBox="0 0 67 80" version="1.1" xmlns="http://www.w3.org/2000/svg" xmlns:xlink="http://www.w3.org/1999/xlink" xml:space="preserve" xmlns:serif="http://www.serif.com/" style="fill-rule:evenodd;clip-rule:evenodd;stroke-linejoin:round;stroke-miterlimit:2;">
    <g transform="matrix(1.66667,0,0,1.66667,-1023.59,-271.667)">
        <path d="M653.724,186.727C653.724,186.182 653.172,185.636 652.621,185.636L618.69,185.636L632.483,172.818C633.034,173.091 633.862,173.364 634.69,173.364C637.724,173.364 639.931,171.182 639.931,168.182C639.931,165.455 637.724,163 634.69,163C631.931,163 629.448,165.455 629.448,168.182C629.448,169.273 629.724,170.364 630.276,171.182L614.552,186.182C614.276,186.455 614,187 614.276,187.545C614.552,188.091 615.103,188.364 615.655,188.364L649.034,188.364L633.31,201.182C632.483,200.909 631.931,200.636 631.103,200.636C628.069,200.636 625.862,203.091 625.862,205.818C625.862,208.818 628.069,211 631.103,211C634.138,211 636.345,208.818 636.345,205.818C636.345,204.727 636.069,203.636 635.241,202.818L653.448,188.091C654,187.818 654,187 653.724,186.727ZM634.69,165.727C636.069,165.727 637.448,166.818 637.448,168.182C637.448,169.545 636.069,170.909 634.69,170.909C633.31,170.909 632.207,169.545 632.207,168.182C632.207,166.818 633.31,165.727 634.69,165.727ZM631.103,208.545C629.724,208.545 628.345,207.182 628.345,205.818C628.345,204.455 629.724,203.364 631.103,203.364C632.483,203.364 633.862,204.455 633.862,205.818C633.862,207.182 632.483,208.545 631.103,208.545Z" style="fill:rgb(226,0,116);"/>
    </g>
</svg>
