<?xml version="1.0" encoding="UTF-8" standalone="no"?>
<!DOCTYPE svg PUBLIC "-//W3C//DTD SVG 1.1//EN" "http://www.w3.org/Graphics/SVG/1.1/DTD/svg11.dtd">
<svg width="100%" height="100%" viewBox="0 0 73 80" version="1.1" xmlns="http://www.w3.org/2000/svg" xmlns:xlink="http://www.w3.org/1999/xlink" xml:space="preserve" xmlns:serif="http://www.serif.com/" style="fill-rule:evenodd;clip-rule:evenodd;stroke-linejoin:round;stroke-miterlimit:2;">
    <g transform="matrix(1.6396,0,0,1.6396,-690.295,-249.561)">
        <path d="M462.525,162.243L445.75,152.831C444.375,152 441.9,152 440.525,152.831L423.75,162.243C422.1,163.073 421,165.011 421,166.672L421,186.605C421,188.266 422.1,190.203 423.75,191.034L440.525,200.446C441.075,200.723 442.175,201 443,201C444.1,201 444.925,200.723 445.75,200.446L462.525,191.034C463.9,190.203 465,188.266 465,186.605L465,166.672C465,165.011 463.9,163.073 462.525,162.243ZM423.475,166.672C423.475,165.842 424.025,164.734 424.85,164.181L441.625,154.768C441.9,154.492 442.45,154.492 443,154.492C443.55,154.492 444.1,154.492 444.375,154.768L461.425,164.181C461.975,164.734 462.8,165.842 462.8,166.672L462.8,179.684C462.8,180.791 461.975,182.175 461.15,182.729L444.65,192.141C443.825,192.418 442.175,192.418 441.35,192.141L425.125,182.729C424.3,182.175 423.475,180.791 423.475,179.684L423.475,166.672ZM461.425,188.819L444.375,198.232C443.825,198.785 442.45,198.785 441.625,198.232L424.85,188.819C424.025,188.542 423.475,187.435 423.475,186.605L423.475,182.729C423.75,183.006 424.025,183.282 424.575,183.559L440.8,192.972C441.35,193.249 442.175,193.525 443,193.525C443.825,193.525 444.65,193.249 445.475,192.972L461.7,183.559C461.975,183.282 462.525,183.006 462.8,182.729L462.8,186.605C462.8,187.435 461.975,188.542 461.425,188.819Z" style="fill:rgb(226,0,116);"/>
    </g>
</svg>
