<?xml version="1.0" encoding="UTF-8" standalone="no"?>
<!DOCTYPE svg PUBLIC "-//W3C//DTD SVG 1.1//EN" "http://www.w3.org/Graphics/SVG/1.1/DTD/svg11.dtd">
<svg width="100%" height="100%" viewBox="0 0 74 80" version="1.1" xmlns="http://www.w3.org/2000/svg" xmlns:xlink="http://www.w3.org/1999/xlink" xml:space="preserve" xmlns:serif="http://www.serif.com/" style="fill-rule:evenodd;clip-rule:evenodd;stroke-linejoin:round;stroke-miterlimit:2;">
    <g transform="matrix(1.6396,0,0,1.6396,-924.728,-249.561)">
        <path d="M606.469,162.243L589.312,152.831C587.906,152 585.375,152 583.969,152.831L566.812,162.243C565.125,163.073 564,165.011 564,166.672L564,186.605C564,188.266 565.125,190.203 566.812,191.034L583.969,200.446C584.531,200.723 585.656,201 586.5,201C587.625,201 588.469,200.723 589.312,200.446L606.469,191.034C607.875,190.203 609,188.266 609,186.605L609,166.672C609,165.011 607.875,163.073 606.469,162.243ZM606.75,186.605C606.75,187.435 605.906,188.542 605.344,189.096L587.906,198.508C587.344,198.785 585.938,198.785 585.094,198.508L567.938,189.096C567.094,188.542 566.531,187.435 566.531,186.605L566.531,166.672C566.531,165.842 567.094,164.734 567.938,164.181L585.094,154.768C585.375,154.768 585.938,154.492 586.5,154.492C587.062,154.492 587.625,154.768 587.906,154.768L605.344,164.181C605.906,164.734 606.75,165.842 606.75,166.672L606.75,186.605Z" style="fill:rgb(226,0,116);"/>
        <path d="M586.866,159C586.866,159 578,167.031 578,175.062C578,183.092 581.761,188.354 586.328,188.631L586.328,194.446C586.328,194.723 586.597,195 586.866,195C587.134,195 587.403,194.723 587.403,194.446L587.403,188.631C592.239,188.354 596,183.092 596,175.062C596,167.031 586.866,159 586.866,159ZM579.075,175.062C579.075,169.246 583.91,163.708 586.328,161.215L586.328,187.523C582.03,187.246 579.075,181.985 579.075,175.062ZM587.403,187.523L587.403,161.215C589.821,163.708 594.925,169.246 594.925,175.062C594.925,181.985 591.701,187.246 587.403,187.523Z" style="fill:rgb(226,0,116);"/>
    </g>
</svg>
