<?xml version="1.0" encoding="UTF-8" standalone="no"?>
<!DOCTYPE svg PUBLIC "-//W3C//DTD SVG 1.1//EN" "http://www.w3.org/Graphics/SVG/1.1/DTD/svg11.dtd">
<svg width="100%" height="100%" viewBox="0 0 60 80" version="1.1" xmlns="http://www.w3.org/2000/svg" xmlns:xlink="http://www.w3.org/1999/xlink" xml:space="preserve" xmlns:serif="http://www.serif.com/" style="fill-rule:evenodd;clip-rule:evenodd;stroke-linejoin:round;stroke-miterlimit:2;">
    <g transform="matrix(1.70213,0,0,1.70213,-1919.99,-279.149)">
        <g transform="matrix(-1,0,0,1,1163,164)">
            <path d="M28.438,0L6.563,0C3.008,0 0,2.938 0,6.409L0,40.591C0,44.063 3.008,47 6.563,47L28.438,47C31.992,47 35,44.063 35,40.591L35,6.409C35,2.938 31.992,0 28.438,0ZM32.813,40.591C32.813,42.994 30.898,44.864 28.438,44.864L6.563,44.864C4.102,44.864 2.188,42.994 2.188,40.591L2.188,6.409C2.188,4.006 4.102,2.136 6.563,2.136L28.438,2.136C30.898,2.136 32.813,4.006 32.813,6.409L32.813,40.591Z" style="fill:rgb(226,0,116);"/>
        </g>
        <g transform="matrix(-1,0,0,1,1157,172)">
            <path d="M21.273,0L2.727,0C1.364,0 0,1.5 0,3C0,4.8 1.364,6 2.727,6L21.273,6C22.909,6 24,4.8 24,3C24,1.5 22.909,0 21.273,0ZM21.273,4.8L2.727,4.8C1.909,4.8 1.091,3.9 1.091,3C1.091,2.1 1.909,1.2 2.727,1.2L21.273,1.2C22.091,1.2 22.909,2.1 22.909,3C22.909,3.9 22.091,4.8 21.273,4.8Z" style="fill:rgb(226,0,116);"/>
        </g>
        <g transform="matrix(-1,0,0,1,1157,180)">
            <path d="M21.273,0L2.727,0C1.364,0 0,1.25 0,2.5C0,4 1.364,5 2.727,5L21.273,5C22.909,5 24,4 24,2.5C24,1.25 22.909,0 21.273,0ZM21.273,4L2.727,4C1.909,4 1.091,3.25 1.091,2.5C1.091,1.75 1.909,1 2.727,1L21.273,1C22.091,1 22.909,1.75 22.909,2.5C22.909,3.25 22.091,4 21.273,4Z" style="fill:rgb(226,0,116);"/>
        </g>
        <g transform="matrix(-1,0,0,1,1150,193)">
            <path d="M4.5,0C1.969,0 0,1.969 0,4.5C0,7.031 1.969,9 4.5,9C7.031,9 9,7.031 9,4.5C9,1.969 7.031,0 4.5,0ZM4.5,7.875C2.531,7.875 1.125,6.469 1.125,4.5C1.125,2.813 2.531,1.125 4.5,1.125C6.469,1.125 7.875,2.813 7.875,4.5C7.875,6.469 6.469,7.875 4.5,7.875Z" style="fill:rgb(226,0,116);"/>
        </g>
    </g>
</svg>
