<?xml version="1.0" encoding="UTF-8" standalone="no"?>
<!DOCTYPE svg PUBLIC "-//W3C//DTD SVG 1.1//EN" "http://www.w3.org/Graphics/SVG/1.1/DTD/svg11.dtd">
<svg width="100%" height="100%" viewBox="0 0 73 80" version="1.1" xmlns="http://www.w3.org/2000/svg" xmlns:xlink="http://www.w3.org/1999/xlink" xml:space="preserve" xmlns:serif="http://www.serif.com/" style="fill-rule:evenodd;clip-rule:evenodd;stroke-linejoin:round;stroke-miterlimit:2;">
    <g transform="matrix(1.63993,0,0,1.63993,-1497.24,-256.186)">
        <path d="M954.395,166.148L937.605,156.87C936.447,156 934.132,156 932.684,156.87L915.605,166.148C914.158,167.018 913,169.047 913,170.497L913,190.503C913,191.953 914.158,193.982 915.605,194.852L932.684,204.13C933.263,204.71 934.132,205 935.289,205C936.158,205 937.026,204.71 937.895,204.13L954.395,194.852C955.842,193.982 957,191.953 957,190.503L957,170.497C957,169.047 955.842,167.018 954.395,166.148ZM954.684,190.503C954.684,191.373 954.105,192.533 953.237,192.822L936.737,202.391C935.868,202.68 934.421,202.68 933.842,202.391L916.763,192.822C916.184,192.533 915.316,191.373 915.316,190.503L915.316,170.497C915.316,169.627 916.184,168.467 916.763,168.178L933.842,158.609C934.132,158.609 934.711,158.32 935.289,158.32C935.868,158.32 936.158,158.609 936.737,158.609L953.237,168.178C954.105,168.467 954.684,169.627 954.684,170.497L954.684,190.503Z" style="fill:rgb(226,0,116);"/>
        <path d="M940.389,182.744C940.389,182.744 940.694,182.744 940.694,182.442C941,182.14 941,181.837 940.694,181.535L935.806,177L934.889,177L930,181.535L930,182.442C930.306,182.744 930.917,182.744 931.222,182.442L935.194,178.814L935.194,189.395C935.194,189.698 935.5,190 935.806,190C936.111,190 936.417,189.698 936.417,189.395L936.417,178.814L940.083,182.442C940.083,182.744 940.083,182.744 940.389,182.744Z" style="fill:rgb(226,0,116);"/>
        <path d="M946.375,174L923.917,174C922.458,174 921,175.167 921,176.917L921,184.208C921,185.958 922.458,188 923.917,188L931.208,188C931.5,188 931.792,187.708 931.792,187.417C931.792,186.833 931.5,186.833 931.208,186.833L923.917,186.833C923.042,186.833 922.167,185.375 922.167,184.208L922.167,176.917C922.167,176.042 923.042,175.167 923.917,175.167L946.375,175.167C947.542,175.167 947.833,176.042 947.833,176.917L947.833,184.208C947.833,185.375 947.542,186.833 946.375,186.833L939.083,186.833C938.792,186.833 938.5,186.833 938.5,187.417C938.5,187.708 938.792,188 939.083,188L946.375,188C948.125,188 949,185.958 949,184.208L949,176.917C949,175.167 948.125,174 946.375,174Z" style="fill:rgb(226,0,116);"/>
    </g>
</svg>
