<?xml version="1.0" encoding="UTF-8" standalone="no"?>
<!DOCTYPE svg PUBLIC "-//W3C//DTD SVG 1.1//EN" "http://www.w3.org/Graphics/SVG/1.1/DTD/svg11.dtd">
<svg width="100%" height="100%" viewBox="0 0 80 59" version="1.1" xmlns="http://www.w3.org/2000/svg" xmlns:xlink="http://www.w3.org/1999/xlink" xml:space="preserve" xmlns:serif="http://www.serif.com/" style="fill-rule:evenodd;clip-rule:evenodd;stroke-linejoin:round;stroke-miterlimit:2;">
    <g transform="matrix(1.77778,0,0,1.77778,-1294.22,-599.094)">
        <path d="M746,356C746,354.895 746.895,354 748,354C749.105,354 750,354.895 750,356C750,357.105 749.105,358 748,358C746.895,358 746,357.105 746,356Z" style="fill:rgb(226,0,116);"/>
        <path d="M738,356C738,354.895 738.895,354 740,354C741.105,354 742,354.895 742,356C742,357.105 741.105,358 740,358C738.895,358 738,357.105 738,356Z" style="fill:rgb(226,0,116);"/>
        <path d="M754,356C754,354.895 755.119,354 756.5,354C757.881,354 759,354.895 759,356C759,357.105 757.881,358 756.5,358C755.119,358 754,357.105 754,356Z" style="fill:rgb(226,0,116);"/>
        <path d="M770.18,337L735.82,337C734.282,337 733,338.296 733,339.852L733,340.111L734.026,340.111L734.026,339.852C734.026,338.815 734.795,338.037 735.82,338.037L770.18,338.037C771.205,338.037 771.974,338.815 771.974,339.852L771.974,362.148C771.974,363.185 771.205,363.963 770.18,363.963L769.923,363.963L769.923,365L770.18,365C771.718,365 773,363.704 773,362.148L773,339.852C773,338.296 771.718,337 770.18,337Z" style="fill:rgb(226,0,116);"/>
        <path d="M765.925,342L731.075,342C729.537,342 728,343.25 728,345L728,367C728,368.5 729.537,370 731.075,370L765.925,370C767.719,370 769,368.5 769,367L769,345C769,343.25 767.719,342 765.925,342ZM766.95,367C766.95,367.5 766.694,368 765.925,368L731.075,368C730.562,368 730.05,367.5 730.05,367L730.05,345C730.05,344.5 730.562,344 731.075,344L765.925,344C766.694,344 766.95,344.5 766.95,345L766.95,367Z" style="fill:rgb(226,0,116);"/>
    </g>
</svg>
