<?xml version="1.0" encoding="UTF-8" standalone="no"?>
<!DOCTYPE svg PUBLIC "-//W3C//DTD SVG 1.1//EN" "http://www.w3.org/Graphics/SVG/1.1/DTD/svg11.dtd">
<svg width="100%" height="100%" viewBox="0 0 80 79" version="1.1" xmlns="http://www.w3.org/2000/svg" xmlns:xlink="http://www.w3.org/1999/xlink" xml:space="preserve" xmlns:serif="http://www.serif.com/" style="fill-rule:evenodd;clip-rule:evenodd;stroke-linejoin:round;stroke-miterlimit:2;">
    <g transform="matrix(1.63265,0,0,1.63265,-1164.08,-266.106)">
        <path d="M720,194L727.5,194C728.889,194 730,192.917 730,191.562L730,183.708C730,182.354 728.889,181 727.5,181L720,181L720,194ZM721.111,182.083L727.5,182.083C728.333,182.083 728.889,182.896 728.889,183.708L728.889,191.562C728.889,192.375 728.333,192.917 727.5,192.917L721.111,192.917L721.111,182.083Z" style="fill:rgb(226,0,116);"/>
        <path d="M737.5,163C723.858,163 713,173.909 713,187C713,200.364 723.858,211 737.5,211C750.864,211 762,200.364 762,187C762,173.909 750.864,163 737.5,163ZM756.989,176.636L749.193,176.636C747.801,171.182 745.017,167.364 741.398,165.727C748.358,166.818 753.926,171.182 756.989,176.636ZM748.08,176.636L726.92,176.636C728.869,169.818 732.767,165.727 737.5,165.727C742.233,165.727 746.131,169.818 748.08,176.636ZM733.324,165.727C729.983,167.364 727.199,171.182 725.807,176.636L717.733,176.636C721.074,171.182 726.642,166.818 733.324,165.727ZM717.176,177.727L757.545,177.727C758.938,180.727 759.773,183.727 759.773,187C759.773,190.545 758.938,193.545 757.545,196.273L717.176,196.273C716.062,193.545 715.227,190.545 715.227,187C715.227,183.727 716.062,180.727 717.176,177.727ZM726.92,197.364L747.801,197.364C746.131,204.455 742.233,208.273 737.5,208.273C732.489,208.273 728.591,204.455 726.92,197.364ZM717.733,197.364L725.807,197.364C727.199,203.091 729.705,206.909 733.324,208.545C726.642,207.455 721.074,203.091 717.733,197.364ZM741.398,208.545C745.017,206.909 747.523,203.091 749.193,197.364L756.989,197.364C753.926,203.091 748.08,207.455 741.398,208.545Z" style="fill:rgb(226,0,116);"/>
        <path d="M733.1,182.083L733.375,182.083C734.2,182.083 735.025,182.625 735.3,183.708L738.325,192.104L738.875,191.833L738.325,192.104C738.875,193.458 739.7,194 741.35,194L743,194L743,181L741.9,181L741.9,192.917L741.35,192.917C740.25,192.917 739.7,192.646 739.425,191.833L736.4,183.438C736.125,182.896 735.575,181 733.375,181L732,181L732,194L733.1,194L733.1,182.083Z" style="fill:rgb(226,0,116);"/>
        <path d="M747.222,187.5L752.5,187.5C753.333,187.5 753.889,188.312 753.889,189.125L753.889,191.562C753.889,192.375 753.333,192.917 752.5,192.917L745,192.917L745,194L752.5,194C753.889,194 755,192.917 755,191.562L755,189.125C755,187.771 753.889,186.417 752.5,186.417L747.222,186.417C746.667,186.417 746.111,185.875 746.111,185.062L746.111,183.708C746.111,182.896 746.667,182.083 747.222,182.083L755,182.083L755,181L747.222,181C746.111,181 745,182.354 745,183.708L745,185.062C745,186.417 746.111,187.5 747.222,187.5Z" style="fill:rgb(226,0,116);"/>
    </g>
</svg>
