<?xml version="1.0" encoding="UTF-8" standalone="no"?>
<!DOCTYPE svg PUBLIC "-//W3C//DTD SVG 1.1//EN" "http://www.w3.org/Graphics/SVG/1.1/DTD/svg11.dtd">
<svg width="100%" height="100%" viewBox="0 0 80 62" version="1.1" xmlns="http://www.w3.org/2000/svg" xmlns:xlink="http://www.w3.org/1999/xlink" xml:space="preserve" xmlns:serif="http://www.serif.com/" style="fill-rule:evenodd;clip-rule:evenodd;stroke-linejoin:round;stroke-miterlimit:2;">
    <g transform="matrix(0.0852878,0,0,0.0852878,-3.66738,-12.81)">
        <path d="M924,286L721,164C705,154.667 685.333,150 662,150C638.667,150 618.667,154.667 602,164L512,218L422,164C406,154.667 386.5,150 363.5,150C340.5,150 320.333,154.667 303,164L102,286C85.333,295.333 71.333,310.333 60,331C48.667,351.667 43,372.333 43,393L43,634C43,654 48.5,674 59.5,694C70.5,714 84,728.667 100,738L303,860C319,869.333 338.667,874 362,874C385.333,874 405.333,869.333 422,860L512,806L602,860C610,864 619.167,867.5 629.5,870.5C639.833,873.5 650.333,875 661,875C671.667,875 682.167,873.5 692.5,870.5C702.833,867.5 712.333,864 721,860L922,738C930,732.667 937.667,726.333 945,719C952.333,711.667 958.667,703 964,693C969.333,683.667 973.5,673.833 976.5,663.5C979.5,653.167 981,643.333 981,634L981,390C981,370 975.5,350 964.5,330C953.5,310 940,295.333 924,286ZM939,631C939,637.667 938,644.333 936,651C934,657.667 931.333,664.667 928,672C924.667,678.667 920.5,684.5 915.5,689.5C910.5,694.5 905.333,698.667 900,702L706,817L704,817C692,824.333 677.667,828 661,828C644.333,828 630.333,824.333 619,817L416,695C404,689 395.667,681.833 391,673.5C386.333,665.167 384,654 384,640L384,395C384,392.333 383.5,390.167 382.5,388.5C381.5,386.833 380,385.333 378,384C375.333,382.667 373,382.5 371,383.5C369,384.5 367,386 365,388L269,506C267,508 266.333,510.333 267,513C267.667,515.667 269,518.333 271,521C273,523 275.5,523.667 278.5,523C281.5,522.333 284,520.667 286,518L363,425L363,640C363,658 366.333,672.833 373,684.5C379.667,696.167 390.333,707 405,717L491,768L399,823C389.667,828.333 377.333,831.333 362,832C346.667,832.667 334,829.667 324,823L122,702C111.333,695.333 102.167,685.167 94.5,671.5C86.833,657.833 83,645.333 83,634L83,390C83,377.333 86.833,364.167 94.5,350.5C102.167,336.833 111.333,327.333 122,322L316,207L318,207C329.333,199.667 343.5,196 360.5,196C377.5,196 391.667,199.667 403,207L606,329C618.667,335 627.5,342 632.5,350C637.5,358 640,369.333 640,384L640,629C640,631.667 640.5,633.833 641.5,635.5C642.5,637.167 644,638.667 646,640L651,640C651.667,640 653,639.5 655,638.5C657,637.5 658.333,636.667 659,636L755,518C757,516 757.667,513.667 757,511C756.333,508.333 755,505.667 753,503C751,501 748.5,500.333 745.5,501C742.5,501.667 740,503.333 738,506L661,599L661,384C661,366 657.667,351.167 651,339.5C644.333,327.833 633.667,317 619,307L533,256L625,201C634.333,195.667 646.667,192.667 662,192C677.333,191.333 690,194.333 700,201L902,322C912.667,328.667 921.833,338.833 929.5,352.5C937.167,366.167 941,378.667 941,390L941,631L939,631Z" style="fill:rgb(226,0,116);fill-rule:nonzero;"/>
    </g>
</svg>
