<?xml version="1.0" encoding="UTF-8" standalone="no"?>
<!DOCTYPE svg PUBLIC "-//W3C//DTD SVG 1.1//EN" "http://www.w3.org/Graphics/SVG/1.1/DTD/svg11.dtd">
<svg width="100%" height="100%" viewBox="0 0 80 80" version="1.1" xmlns="http://www.w3.org/2000/svg" xmlns:xlink="http://www.w3.org/1999/xlink" xml:space="preserve" xmlns:serif="http://www.serif.com/" style="fill-rule:evenodd;clip-rule:evenodd;stroke-linejoin:round;stroke-miterlimit:2;">
    <g transform="matrix(1.73913,0,0,1.73913,-434.783,-567.343)">
        <path d="M256.9,366.286L289.1,366.286L289.1,365.143L256.9,365.143L256.9,366.286ZM256.9,354.857L289.1,354.857L289.1,353.714L256.9,353.714L256.9,354.857ZM256.9,360.571L289.1,360.571L289.1,359.429L256.9,359.429L256.9,360.571ZM293.413,337.143L275.587,326.857C274.15,326 272.138,326 270.7,326.857L252.587,337.143C251.15,337.714 250,339.714 250,341.429L250,370.857C250,371.429 250.575,372 251.15,372C251.725,372 252.3,371.429 252.3,370.857L252.3,341.429C252.3,340.571 252.875,339.429 253.738,339.143L271.562,328.857C272.425,328.571 273.862,328.571 274.438,328.857L292.55,339.143C293.125,339.429 293.987,340.571 293.987,341.429L293.987,370.857C293.987,371.429 294.275,372 294.85,372C295.712,372 296,371.429 296,370.857L296,341.429C296,339.714 294.85,337.714 293.413,337.143ZM256.9,343.429L289.1,343.429L289.1,342.286L256.9,342.286L256.9,343.429ZM256.9,349.143L289.1,349.143L289.1,348L256.9,348L256.9,349.143Z" style="fill:rgb(226,0,116);"/>
    </g>
</svg>
