<?xml version="1.0" encoding="UTF-8" standalone="no"?>
<!DOCTYPE svg PUBLIC "-//W3C//DTD SVG 1.1//EN" "http://www.w3.org/Graphics/SVG/1.1/DTD/svg11.dtd">
<svg width="100%" height="100%" viewBox="0 0 80 57" version="1.1" xmlns="http://www.w3.org/2000/svg" xmlns:xlink="http://www.w3.org/1999/xlink" xml:space="preserve" xmlns:serif="http://www.serif.com/" style="fill-rule:evenodd;clip-rule:evenodd;stroke-linejoin:round;stroke-miterlimit:2;">
    <g transform="matrix(1.53846,0,0,1.53846,-489.231,-532.319)">
        <path d="M351,367.5C351,366.672 351.895,366 353,366C354.105,366 355,366.672 355,367.5C355,368.328 354.105,369 353,369C351.895,369 351,368.328 351,367.5Z" style="fill:rgb(226,0,116);"/>
        <path d="M355.412,376L331.588,376C331.294,376 331,376.25 331,376.5C331,376.75 331.294,377 331.588,377L355.412,377C356,377 356,376.75 356,376.5C356,376.25 356,376 355.412,376Z" style="fill:rgb(226,0,116);"/>
        <path d="M352.75,362L335.25,362C332.333,362 330,364.444 330,367.5C330,370.556 332.333,373 335.25,373L352.75,373C355.667,373 358,370.556 358,367.5C358,364.444 355.667,362 352.75,362ZM352.75,371.778L335.25,371.778C332.917,371.778 331.167,369.944 331.167,367.5C331.167,365.056 332.917,363.222 335.25,363.222L352.75,363.222C355.083,363.222 356.833,365.056 356.833,367.5C356.833,369.944 355.083,371.778 352.75,371.778Z" style="fill:rgb(226,0,116);"/>
        <path d="M357.295,355.25C355.523,350.047 350.205,346 344,346C337.795,346 332.477,350.047 330.705,355.25C323.614,356.117 318,361.898 318,369.125C318,376.93 324.5,383 332.182,383L355.818,383C363.795,383 370,376.93 370,369.125C370,361.898 364.386,356.117 357.295,355.25ZM355.818,380.688L332.182,380.688C325.682,380.688 320.364,375.484 320.364,369.125C320.364,363.344 324.795,358.43 331,357.562C331.886,357.562 332.477,356.984 332.773,356.117C334.545,351.492 338.977,348.312 344,348.312C349.023,348.312 353.455,351.492 355.227,356.117C355.523,356.984 356.114,357.562 357.295,357.562C363.205,358.43 367.636,363.344 367.636,369.125C367.636,375.484 362.318,380.688 355.818,380.688Z" style="fill:rgb(226,0,116);"/>
    </g>
</svg>
