<?xml version="1.0" encoding="UTF-8" standalone="no"?>
<!DOCTYPE svg PUBLIC "-//W3C//DTD SVG 1.1//EN" "http://www.w3.org/Graphics/SVG/1.1/DTD/svg11.dtd">
<svg width="100%" height="100%" viewBox="0 0 80 80" version="1.1" xmlns="http://www.w3.org/2000/svg" xmlns:xlink="http://www.w3.org/1999/xlink" xml:space="preserve" xmlns:serif="http://www.serif.com/" style="fill-rule:evenodd;clip-rule:evenodd;stroke-linejoin:round;stroke-miterlimit:2;">
    <g transform="matrix(1.66667,0,0,1.66667,-1351.67,-271.667)">
        <path d="M835,187L842.091,187C844.818,187 847,184.818 847,182.091C847,179.364 844.818,177.182 842.091,177.182L833.909,177.182L833.909,194.636L835,194.636L835,187ZM835,178.273L842.091,178.273C844.273,178.273 845.909,179.909 845.909,182.091C845.909,184.273 844.273,185.909 842.091,185.909L835,185.909L835,178.273ZM835,163C821.909,163 811,173.636 811,187C811,200.364 821.909,211 835,211C848.364,211 859,200.364 859,187C859,173.636 848.364,163 835,163ZM835,208.818C823,208.818 813.182,199 813.182,187C813.182,175 823,165.182 835,165.182C847.273,165.182 856.818,175 856.818,187C856.818,199 847.273,208.818 835,208.818ZM828.455,177.182L827.364,177.182L827.364,194.636L828.455,194.636L828.455,177.182ZM835,203.364C830.636,203.364 826.545,201.727 823.545,198.727L822.727,199.273C826,202.545 830.364,204.455 835,204.455C839.909,204.455 844.273,202.545 847.545,199.273L846.727,198.727C843.727,201.727 839.636,203.364 835,203.364Z" style="fill:rgb(226,0,116);"/>
    </g>
</svg>
