<?xml version="1.0" encoding="UTF-8" standalone="no"?>
<!DOCTYPE svg PUBLIC "-//W3C//DTD SVG 1.1//EN" "http://www.w3.org/Graphics/SVG/1.1/DTD/svg11.dtd">
<svg width="100%" height="100%" viewBox="0 0 80 79" version="1.1" xmlns="http://www.w3.org/2000/svg" xmlns:xlink="http://www.w3.org/1999/xlink" xml:space="preserve" xmlns:serif="http://www.serif.com/" style="fill-rule:evenodd;clip-rule:evenodd;stroke-linejoin:round;stroke-miterlimit:2;">
    <g transform="matrix(1.63265,0,0,1.63265,-600.816,-266.106)">
        <path d="M413.659,193.818C413.381,193.818 413.102,193.818 412.824,194.091L395.284,169.273C396.119,168.455 396.398,167.636 396.398,166.818C396.398,164.636 394.727,163 392.5,163C390.273,163 388.324,164.636 388.324,166.818C388.324,167.636 388.881,168.727 389.438,169.273L372.176,194.091C371.898,194.091 371.619,193.818 371.341,193.818C369.392,193.818 368,195.182 368,197.091C368,198.727 369.392,200.091 371.341,200.091C371.619,200.091 372.176,200.091 372.455,199.818L388.602,207.455C388.602,209.364 390.273,211 392.5,211C394.449,211 396.398,209.364 396.398,207.455L412.267,200.091L413.659,200.091C415.33,200.091 417,198.727 417,197.091C417,195.182 415.33,193.818 413.659,193.818ZM410.318,197.091C410.318,197.364 410.318,197.636 410.597,197.909L395.562,205C395.006,204.182 394.449,203.909 393.614,203.636L393.614,170.364C393.892,170.091 394.17,170.091 394.449,170.091L411.432,194.636C410.875,195.182 410.318,196 410.318,197.091ZM390.551,170.091C390.83,170.091 390.83,170.364 391.108,170.364L391.108,203.636C390.273,203.909 389.716,204.182 389.159,205L374.403,197.909C374.403,197.636 374.682,197.364 374.682,197.091C374.682,196 374.125,195.182 373.29,194.636L390.551,170.091ZM369.114,197.091C369.114,196 370.227,195.182 371.341,195.182C372.455,195.182 373.29,196 373.29,197.091C373.29,198.182 372.455,199 371.341,199C370.227,199 369.114,198.182 369.114,197.091ZM392.5,209.636C390.83,209.636 389.716,208.545 389.716,207.182C389.716,205.818 390.83,204.727 392.5,204.727C393.892,204.727 395.006,205.818 395.006,207.182C395.006,208.545 393.892,209.636 392.5,209.636ZM413.659,199C412.545,199 411.71,198.182 411.71,197.091C411.71,196 412.545,195.182 413.659,195.182C414.773,195.182 415.608,196 415.608,197.091C415.608,198.182 414.773,199 413.659,199Z" style="fill:rgb(226,0,116);"/>
    </g>
</svg>
