<?xml version="1.0" encoding="UTF-8" standalone="no"?>
<!DOCTYPE svg PUBLIC "-//W3C//DTD SVG 1.1//EN" "http://www.w3.org/Graphics/SVG/1.1/DTD/svg11.dtd">
<svg width="100%" height="100%" viewBox="0 0 60 80" version="1.1" xmlns="http://www.w3.org/2000/svg" xmlns:xlink="http://www.w3.org/1999/xlink" xml:space="preserve" xmlns:serif="http://www.serif.com/" style="fill-rule:evenodd;clip-rule:evenodd;stroke-linejoin:round;stroke-miterlimit:2;">
    <g transform="matrix(1.81818,0,0,1.81818,-892.727,-914.545)">
        <path d="M496,508.5C496,507.672 496.672,507 497.5,507C498.328,507 499,507.672 499,508.5C499,509.328 498.328,510 497.5,510C496.672,510 496,509.328 496,508.5Z" style="fill:rgb(226,0,116);"/>
        <path d="M517,508.5C517,507.672 517.672,507 518.5,507C519.328,507 520,507.672 520,508.5C520,509.328 519.328,510 518.5,510C517.672,510 517,509.328 517,508.5Z" style="fill:rgb(226,0,116);"/>
        <path d="M511.75,522.12C511.25,520.2 509.5,519 507.5,519C505.25,519 503.75,520.2 503,522.12C500.75,522.36 499,524.04 499,526.44C499,528.84 501,531 503.5,531L511.25,531C513.75,531 516,528.84 516,526.44C516,524.04 514,522.36 511.75,522.12ZM511.25,530.04L503.5,530.04C501.5,530.04 500,528.36 500,526.44C500,524.76 501.25,523.08 503.25,523.08C503.5,522.84 503.75,522.6 504,522.36C504.5,520.92 505.75,519.96 507.5,519.96C509,519.96 510.25,520.92 510.75,522.36C511,522.6 511.25,522.84 511.75,523.08C513.5,523.08 515,524.76 515,526.44C515,528.36 513.25,530.04 511.25,530.04Z" style="fill:rgb(226,0,116);"/>
        <path d="M517.812,503L497.188,503C493.578,503 491,505.75 491,509L491,541C491,544.25 493.578,547 497.188,547L517.812,547C521.164,547 524,544.25 524,541L524,509C524,505.75 521.164,503 517.812,503ZM521.68,541C521.68,543.25 519.875,545 517.812,545L497.188,545C494.867,545 493.062,543.25 493.062,541L493.062,509C493.062,506.75 494.867,505 497.188,505L517.812,505C519.875,505 521.68,506.75 521.68,509L521.68,541Z" style="fill:rgb(226,0,116);"/>
    </g>
</svg>
