<?xml version="1.0" encoding="UTF-8" standalone="no"?>
<!DOCTYPE svg PUBLIC "-//W3C//DTD SVG 1.1//EN" "http://www.w3.org/Graphics/SVG/1.1/DTD/svg11.dtd">
<svg width="100%" height="100%" viewBox="0 0 80 58" version="1.1" xmlns="http://www.w3.org/2000/svg" xmlns:xlink="http://www.w3.org/1999/xlink" xml:space="preserve" xmlns:serif="http://www.serif.com/" style="fill-rule:evenodd;clip-rule:evenodd;stroke-linejoin:round;stroke-miterlimit:2;">
    <g transform="matrix(1.63265,0,0,1.63265,-238.367,-261.246)">
        <path d="M187.433,171L171.567,171C171.283,171 171,171.25 171,171.5C171,171.75 171.283,172 171.567,172L187.433,172C187.717,172 188,171.75 188,171.5C188,171.25 187.717,171 187.433,171Z" style="fill:rgb(226,0,116);"/>
        <path d="M187.433,176L171.567,176C171.283,176 171,176.25 171,176.5C171,176.75 171.283,177 171.567,177L187.433,177C187.717,177 188,176.75 188,176.5C188,176.25 187.717,176 187.433,176Z" style="fill:rgb(226,0,116);"/>
        <path d="M187.433,182L171.567,182C171.283,182 171,182.25 171,182.5C171,182.75 171.283,183 171.567,183L187.433,183C187.717,183 188,182.75 188,182.5C188,182.25 187.717,182 187.433,182Z" style="fill:rgb(226,0,116);"/>
        <path d="M164.781,181.167C164.219,180.889 163.656,180.889 163.375,180.611L163.375,180.056C164.5,179.222 165.344,177.556 165.344,176.167L165.344,172.278C165.344,169.5 162.812,167 160,167C157.188,167 154.656,169.5 154.656,172.278L154.656,176.167C154.656,177.556 155.5,179.222 156.625,180.056L156.625,180.611C156.344,180.889 155.781,180.889 155.219,181.167C153.531,181.722 151,182.278 151,184.5L151,186.444C151,186.722 151.281,187 151.562,187L168.438,187C168.719,187 169,186.722 169,186.444L169,184.5C169,182.278 166.469,181.722 164.781,181.167ZM167.875,185.889L152.125,185.889L152.125,184.5C152.125,183.111 154.094,182.556 155.5,182.278C156.906,181.722 157.75,181.444 157.75,180.889L157.75,179.778C157.75,179.778 157.75,179.5 157.469,179.5C156.344,178.667 155.781,177.278 155.781,176.167L155.781,172.278C155.781,170.056 157.75,168.111 160,168.111C162.25,168.111 164.219,170.056 164.219,172.278L164.219,176.167C164.219,177.278 163.656,178.667 162.531,179.5C162.25,179.5 162.25,179.778 162.25,179.778L162.25,180.889C162.25,181.444 163.094,181.722 164.5,182.278C165.906,182.556 167.875,183.111 167.875,184.5L167.875,185.889Z" style="fill:rgb(226,0,116);"/>
        <path d="M191.659,160L149.341,160C147.392,160 146,161.367 146,163.281L146,191.719C146,193.633 147.392,195 149.341,195L191.659,195C193.608,195 195,193.633 195,191.719L195,163.281C195,161.367 193.608,160 191.659,160ZM192.773,191.719C192.773,192.266 192.216,192.812 191.659,192.812L149.341,192.812C148.784,192.812 148.227,192.266 148.227,191.719L148.227,163.281C148.227,162.734 148.784,162.188 149.341,162.188L191.659,162.188C192.216,162.188 192.773,162.734 192.773,163.281L192.773,191.719Z" style="fill:rgb(226,0,116);"/>
    </g>
</svg>
