<?xml version="1.0" encoding="UTF-8" standalone="no"?>
<!DOCTYPE svg PUBLIC "-//W3C//DTD SVG 1.1//EN" "http://www.w3.org/Graphics/SVG/1.1/DTD/svg11.dtd">
<svg width="100%" height="100%" viewBox="0 0 68 80" version="1.1" xmlns="http://www.w3.org/2000/svg" xmlns:xlink="http://www.w3.org/1999/xlink" xml:space="preserve" xmlns:serif="http://www.serif.com/" style="fill-rule:evenodd;clip-rule:evenodd;stroke-linejoin:round;stroke-miterlimit:2;">
    <g transform="matrix(1.77778,0,0,1.77778,-823.089,-293.333)">
        <path d="M484.054,165L466.595,165C464.541,165 463,166.534 463,168.58L463,206.42C463,208.466 464.541,210 466.595,210L492.27,210C492.784,210 493.554,209.744 494.068,209.489L498.176,208.466C499.716,207.955 501,206.165 501,204.375L501,182.131C501,172.67 493.297,165 484.054,165ZM493.297,206.42C493.297,207.188 492.784,207.699 492.27,207.699L466.595,207.699C465.824,207.699 465.311,207.188 465.311,206.42L465.311,168.58C465.311,167.812 465.824,167.301 466.595,167.301L479.432,167.301C487.135,167.301 493.297,173.693 493.297,181.619L493.297,206.42ZM499.973,204.375C499.973,205.653 498.946,206.932 497.662,207.188L495.351,207.955C495.608,207.443 495.865,206.932 495.865,206.42L495.865,181.619C495.865,174.716 491.5,168.835 485.595,166.278C493.554,167.045 499.973,173.949 499.973,182.131L499.973,204.375ZM483.541,185.71C483.027,184.176 481.23,182.898 479.432,182.898C477.378,182.898 475.838,184.176 475.068,185.71C473.014,185.966 471.216,188.011 471.216,190.312C471.216,192.614 473.27,194.659 475.581,194.659L483.027,194.659C485.595,194.659 487.649,192.614 487.649,190.312C487.649,188.011 485.851,185.966 483.541,185.71ZM483.027,193.381L475.581,193.381C473.784,193.381 472.5,192.102 472.5,190.312C472.5,188.523 473.527,187.244 475.324,186.989C475.838,186.989 476.095,186.733 476.351,186.222C476.865,184.943 477.892,183.92 479.432,183.92C480.716,183.92 482,184.943 482.514,186.222C482.77,186.733 483.027,186.989 483.541,186.989C485.081,187.244 486.365,188.523 486.365,190.312C486.365,192.102 484.824,193.381 483.027,193.381Z" style="fill:rgb(226,0,116);"/>
    </g>
</svg>
