<?xml version="1.0" encoding="UTF-8" standalone="no"?>
<!DOCTYPE svg PUBLIC "-//W3C//DTD SVG 1.1//EN" "http://www.w3.org/Graphics/SVG/1.1/DTD/svg11.dtd">
<svg width="100%" height="100%" viewBox="0 0 75 80" version="1.1" xmlns="http://www.w3.org/2000/svg" xmlns:xlink="http://www.w3.org/1999/xlink" xml:space="preserve" xmlns:serif="http://www.serif.com/" style="fill-rule:evenodd;clip-rule:evenodd;stroke-linejoin:round;stroke-miterlimit:2;">
    <g transform="matrix(1.53846,0,0,1.53846,-1000.39,-775.385)">
        <path d="M674.652,514.636C669.783,514.636 666.13,518.477 666.13,522.909C666.13,527.636 669.783,531.182 674.652,531.182C679.217,531.182 683.174,527.636 683.174,522.909C683.174,518.477 679.217,514.636 674.652,514.636ZM674.652,530C670.696,530 667.348,526.75 667.348,522.909C667.348,519.068 670.696,515.818 674.652,515.818C678.609,515.818 681.957,519.068 681.957,522.909C681.957,526.75 678.609,530 674.652,530ZM674.043,545.364L675.261,545.364L675.261,543L679.522,543L679.522,541.818L675.261,541.818L675.261,539.455L679.522,539.455L679.522,538.273L675.261,538.273L675.261,531.182L674.043,531.182L674.043,545.364ZM696.261,514.045C693.826,513.159 688.652,511.682 686.217,510.5C681.043,507.841 678.913,506.068 677.087,504.886C676.478,504.295 675.565,504 674.652,504C673.739,504 672.826,504.295 671.913,504.886C670.087,506.068 668.261,507.841 663.087,510.5C660.348,511.682 655.478,513.159 652.739,514.045C651.217,514.636 650,516.114 650.304,517.886C650.609,522.909 652.13,533.545 655.478,540.045C659.13,547.432 668.87,553.341 672.522,555.409C673.13,556 674.043,556 674.652,556C675.261,556 675.87,556 676.478,555.409C680.435,553.341 689.87,547.432 693.826,540.045C697.174,533.545 698.391,522.909 699,517.886C699,516.114 698.087,514.636 696.261,514.045ZM691.696,538.864C689.261,543.591 683.783,548.614 675.261,553.341C674.957,553.636 674.652,553.636 674.652,553.636C674.348,553.636 674.043,553.636 674.043,553.341C665.522,548.614 660.043,543.591 657.609,538.864C654.261,532.364 653.043,520.841 652.739,517.591C652.739,516.705 653.348,516.409 653.652,516.409L654.565,516.114C657.304,514.932 661.565,513.75 664,512.568C668.87,510.205 671,508.432 672.826,507.25C673.13,506.955 673.13,506.955 673.435,506.659C673.739,506.659 674.043,506.364 674.348,506.364L674.652,506.364C675.261,506.364 675.565,506.659 675.565,506.659C675.87,506.955 676.174,506.955 676.478,507.25C678.304,508.432 680.435,510.205 685,512.568C687.435,513.75 691.696,514.932 694.739,516.114L695.652,516.409C695.652,516.409 696.565,516.705 696.565,517.591C696.261,520.841 695.043,532.364 691.696,538.864Z" style="fill:rgb(226,0,116);"/>
    </g>
</svg>
