<?xml version="1.0" encoding="UTF-8" standalone="no"?>
<!DOCTYPE svg PUBLIC "-//W3C//DTD SVG 1.1//EN" "http://www.w3.org/Graphics/SVG/1.1/DTD/svg11.dtd">
<svg width="100%" height="100%" viewBox="0 0 80 58" version="1.1" xmlns="http://www.w3.org/2000/svg" xmlns:xlink="http://www.w3.org/1999/xlink" xml:space="preserve" xmlns:serif="http://www.serif.com/" style="fill-rule:evenodd;clip-rule:evenodd;stroke-linejoin:round;stroke-miterlimit:2;">
    <g transform="matrix(1.75824,0,0,1.75824,-2.63736,-13.1462)">
        <path d="M45.1,35.4C43.5,29.9 41.2,21.9 38.2,11.4C38.6,11 38.8,10.4 38.8,9.8C38.8,8.5 37.8,7.5 36.5,7.5C35.2,7.5 34.2,8.6 34.2,9.8C34.2,10.3 34.4,10.8 34.7,11.2L24.4,19.8L14,11C14.2,10.7 14.3,10.3 14.3,9.9C14.3,8.6 13.3,7.6 12,7.6C10.7,7.6 9.7,8.6 9.7,9.8C9.7,10.5 10,11.2 10.5,11.6C7.4,22 5.1,29.9 3.4,35.4C2.3,35.6 1.5,36.5 1.5,37.7C1.5,39 2.5,40 3.8,40C5.1,40 6.1,38.9 6.1,37.7C6.1,37.3 6,36.9 5.8,36.6L18.1,26.4C20,30.7 21.4,34.1 22.4,36.4C22.1,36.8 22,37.3 22,37.8C22,39.1 23,40.1 24.3,40.1C25.6,40.1 26.6,39 26.6,37.8C26.6,37.2 26.4,36.6 26,36.2C27,33.9 28.5,30.6 30.3,26.3L42.6,36.8C42.5,37.1 42.4,37.4 42.4,37.7C42.4,39 43.4,40 44.7,40C46,40 47,39 47,37.7C47,36.5 46.2,35.6 45.1,35.4ZM36.5,8.5C37.2,8.5 37.8,9.1 37.8,9.8C37.8,10.5 37.2,11.1 36.5,11.1C35.8,11.1 35.2,10.5 35.2,9.8C35.2,9.1 35.8,8.5 36.5,8.5ZM12,8.5C12.7,8.5 13.3,9.1 13.3,9.8C13.3,10.5 12.7,11.1 12,11.1C11.3,11.1 10.7,10.5 10.7,9.8C10.7,9.1 11.3,8.5 12,8.5ZM3.8,39.1C3.1,39.1 2.5,38.5 2.5,37.8C2.5,37.1 3.1,36.5 3.8,36.5C4.5,36.5 5.1,37.1 5.1,37.8C5.1,38.5 4.5,39.1 3.8,39.1ZM5.4,35.7L12.3,12.8L17.7,25.4L5.4,35.7ZM14.4,12.6L23.6,20.5L19.3,24.1L14.4,12.6ZM24.3,39.1C23.6,39.1 23,38.5 23,37.8C23,37.1 23.6,36.5 24.3,36.5C25,36.5 25.6,37.1 25.6,37.8C25.6,38.5 25,39.1 24.3,39.1ZM24.1,35.3L19.7,25L24.3,21.1L28.6,24.8L24.1,35.3ZM29.1,23.9L25.1,20.5L33.8,13.3L29.1,23.9ZM36.4,12.4L43.2,36L30.7,25.3L36.4,12.4ZM44.7,39.1C44,39.1 43.4,38.5 43.4,37.8C43.4,37.1 44,36.5 44.7,36.5C45.4,36.5 46,37 46,37.7C46,38.4 45.4,39.1 44.7,39.1Z" style="fill:rgb(226,0,116);fill-rule:nonzero;"/>
    </g>
</svg>
