<?xml version="1.0" encoding="UTF-8" standalone="no"?>
<!DOCTYPE svg PUBLIC "-//W3C//DTD SVG 1.1//EN" "http://www.w3.org/Graphics/SVG/1.1/DTD/svg11.dtd">
<svg width="100%" height="100%" viewBox="0 0 74 80" version="1.1" xmlns="http://www.w3.org/2000/svg" xmlns:xlink="http://www.w3.org/1999/xlink" xml:space="preserve" xmlns:serif="http://www.serif.com/" style="fill-rule:evenodd;clip-rule:evenodd;stroke-linejoin:round;stroke-miterlimit:2;">
    <g transform="matrix(1.6068,0,0,1.6068,-202.464,-520.945)">
        <path d="M169.413,334.452L151.875,324.847C150.15,324 147.85,324 146.413,324.847L128.875,334.452C127.15,335.299 126,337.277 126,338.972L126,359.311C126,361.006 127.15,362.983 128.875,363.831L146.413,373.435C146.988,373.717 148.137,374 149,374C150.15,374 151.012,373.717 151.875,373.435L169.413,363.831C170.85,362.983 172,361.006 172,359.311L172,338.972C172,337.277 170.85,335.299 169.413,334.452ZM169.7,359.311C169.7,360.158 168.837,361.288 168.262,361.853L150.438,371.458C149.863,371.74 148.425,371.74 147.562,371.458L130.025,361.853C129.163,361.288 128.587,360.158 128.587,359.311L128.587,338.972C128.587,338.124 129.163,336.994 130.025,336.429L147.562,326.825C147.85,326.825 148.425,326.542 149,326.542C149.575,326.542 150.15,326.825 150.438,326.825L168.262,336.429C168.837,336.994 169.7,338.124 169.7,338.972L169.7,359.311Z" style="fill:rgb(226,0,116);"/>
        <path d="M161.13,341.857C161.13,341.857 160.557,341.571 160.557,341.286C159.983,341 157.974,340.429 156.826,341C156.539,341 156.539,340.714 156.252,340.429C155.391,339.286 153.957,338.429 152.235,337.857C150.8,337.286 149.078,337 147.357,337C144.487,337 141.33,338.429 139.322,340.714C138.174,341 136.739,341.857 135.591,343C135.591,343 135.304,343 135.304,343.286C133.87,344.714 131,348.143 131.861,351.286C132.148,353 133.583,354.143 135.878,355C136.165,355 136.165,355.571 136.165,356.429C136.165,357.286 136.165,358.143 136.739,358.714C137.026,359 137.6,359.286 138.174,359.286L138.461,359.286C138.461,359.286 141.043,359.571 142.765,357.857C144.487,355.857 145.061,352.714 144.2,348.143C144.2,347.857 143.913,347.571 143.626,347.571C143.052,347.571 143.052,347.857 143.052,348.143C143.626,352.429 143.339,355.286 141.904,357C140.47,358.143 139.035,358.143 138.461,358.143L138.174,358.143C137.887,358.143 137.887,358.143 137.6,357.857C137.313,357.571 137.313,357 137.313,356.429C137.313,355.571 137.313,354.143 136.452,353.857C134.443,353.286 133.296,352.143 133.009,351C132.148,347.857 136.452,343.857 136.452,343.857L136.452,343.571C137.6,342.714 138.748,342.143 139.896,341.571L140.183,341.571C141.904,339.286 144.774,338.143 147.357,338.143C150.226,338.143 152.522,339 154.243,340.143C154.53,340.429 154.817,340.714 154.817,340.714L155.104,340.714L155.104,341C155.391,341.286 155.391,341.286 155.391,341.571C155.678,341.571 155.678,341.857 155.965,341.857L155.965,342.143C156.539,342.714 156.826,343.571 157.113,344.429C157.113,344.714 157.4,345.857 157.4,347C157.4,348.429 157.113,348.714 157.113,349.286L157.113,349.571C157.687,349.286 157.974,348.714 157.974,347.286C158.261,346.429 158.261,345.857 157.974,344.714C157.974,343.286 157.4,342.714 157.113,342.143C157.974,341.857 159.409,342.143 159.696,342.429C159.983,342.429 160.27,342.714 160.27,342.714C160.27,342.714 160.27,343 160.557,343.286C162.565,348.143 162.565,351.857 161.13,354.143C159.409,356.714 156.252,357 154.53,357C154.243,358.143 153.383,359 152.522,359.571C151.948,359.571 151.374,359.857 151.087,359.857C149.652,359.857 148.504,359 147.93,358.143L148.504,360.429C149.365,360.714 150.226,361 151.087,361C151.661,361 152.235,361 152.809,360.714C153.957,360.143 154.817,359.286 155.391,358.143C157.4,358.143 160.27,357.571 161.991,355C164,352.143 163.713,348.143 161.704,342.714C161.417,342.429 161.417,342.143 161.13,341.857Z" style="fill:rgb(226,0,116);"/>
        <path d="M151.308,349L151.923,349C151.923,349 152.231,349 152.231,348.75C152.538,348.75 152.846,348.25 153.769,348.25L154.385,348.25C154.692,348.25 155,348 155,347.75L155,347.5C154.692,347.25 154.692,347.25 154.385,347.25C154.385,347.25 154.077,347 153.769,347C152.538,347 151.615,347.75 151.308,348.25C151,348.25 151,348.5 151,348.5C151.308,348.75 151.308,348.75 151.308,349Z" style="fill:rgb(226,0,116);"/>
    </g>
</svg>
