<?xml version="1.0" encoding="UTF-8" standalone="no"?>
<!DOCTYPE svg PUBLIC "-//W3C//DTD SVG 1.1//EN" "http://www.w3.org/Graphics/SVG/1.1/DTD/svg11.dtd">
<svg width="100%" height="100%" viewBox="0 0 80 80" version="1.1" xmlns="http://www.w3.org/2000/svg" xmlns:xlink="http://www.w3.org/1999/xlink" xml:space="preserve" xmlns:serif="http://www.serif.com/" style="fill-rule:evenodd;clip-rule:evenodd;stroke-linejoin:round;stroke-miterlimit:2;">
    <g transform="matrix(1.90476,0,0,1.90476,-2152.38,-316.19)">
        <path d="M1158.93,197L1157.07,199L1157.07,191.5C1157.07,191.25 1157.07,191 1156.53,191C1156.27,191 1156,191.25 1156,191.5L1156,200.5C1156,200.75 1156.27,200.75 1156.53,201C1156.8,201 1157.07,200.75 1157.07,200.75L1159.73,197.75C1160,197.5 1160,197.25 1159.73,197C1159.47,196.75 1159.2,197 1158.93,197Z" style="fill:rgb(226,0,116);"/>
        <path d="M1145.5,191C1145.25,191 1145,191.25 1145,191.5L1145,200.5C1145,200.75 1145.25,201 1145.5,201C1146,201 1146,200.75 1146,200.5L1146,191.5C1146,191.25 1146,191 1145.5,191Z" style="fill:rgb(226,0,116);"/>
        <path d="M1159,181.317L1157,181.317L1157,174.488C1157,174.244 1157,174 1156.5,174C1156.25,174 1156,174.244 1156,174.488L1156,181.317L1146,181.317L1146,174.488C1146,174.244 1146,174 1145.75,174L1145.25,174L1142.75,176.927C1142.5,177.171 1142.5,177.659 1142.75,177.659C1143,177.902 1143.25,177.902 1143.5,177.659L1145,175.707L1145,181.317L1143,181.317C1139.25,181.317 1136,184 1136,187.659C1136,191.073 1139.25,194 1143,194C1143.5,194 1143.5,193.756 1143.5,193.512C1143.5,193.268 1143.5,193.024 1143,193.024C1139.75,193.024 1137,190.585 1137,187.659C1137,184.732 1139.75,182.293 1143,182.293L1159,182.293C1162.5,182.293 1165,184.732 1165,187.659C1165,190.585 1162.5,193.024 1159,193.024C1158.75,193.024 1158.5,193.268 1158.5,193.512C1158.5,193.756 1158.75,194 1159,194C1163,194 1166,191.073 1166,187.659C1166,184 1163,181.317 1159,181.317Z" style="fill:rgb(226,0,116);"/>
        <path d="M1168,166L1134,166C1132,166 1130,167.75 1130,170L1130,204C1130,206.25 1132,208 1134,208L1168,208C1170.25,208 1172,206.25 1172,204L1172,170C1172,167.75 1170.25,166 1168,166ZM1170,204C1170,205 1169.25,206 1168,206L1134,206C1133,206 1132,205 1132,204L1132,170C1132,168.75 1133,168 1134,168L1168,168C1169.25,168 1170,168.75 1170,170L1170,204Z" style="fill:rgb(226,0,116);"/>
    </g>
</svg>
