<?xml version="1.0" encoding="UTF-8" standalone="no"?>
<!DOCTYPE svg PUBLIC "-//W3C//DTD SVG 1.1//EN" "http://www.w3.org/Graphics/SVG/1.1/DTD/svg11.dtd">
<svg width="100%" height="100%" viewBox="0 0 80 59" version="1.1" xmlns="http://www.w3.org/2000/svg" xmlns:xlink="http://www.w3.org/1999/xlink" xml:space="preserve" xmlns:serif="http://www.serif.com/" style="fill-rule:evenodd;clip-rule:evenodd;stroke-linejoin:round;stroke-miterlimit:2;">
    <g transform="matrix(1.33333,0,0,1.33333,-1144,-439.983)">
        <path d="M903.341,341C900.955,334.812 895.159,330 888,330C880.841,330 874.705,334.812 872.318,341C864.136,342.031 858,348.906 858,357.5C858,366.781 865.159,374 874.364,374L901.636,374C910.5,374 918,366.781 918,357.5C918,348.906 911.523,342.031 903.341,341ZM883.227,371.25L883.227,359.562L874.705,359.562C874.705,359.562 875.045,359.219 875.386,358.875L886.295,347.531C886.636,347.188 887.318,346.844 888,346.844C888.341,346.844 889.023,347.188 889.364,347.531L900.273,358.875C900.614,359.219 900.614,359.562 900.614,359.562L892.773,359.562L892.773,371.25L883.227,371.25ZM901.636,371.25L894.136,371.25L894.136,360.938L899.932,360.938C901.295,360.938 901.636,360.25 901.636,359.906C901.977,359.562 901.977,358.875 900.955,357.844L890.386,346.5C889.705,346.156 888.682,345.469 888,345.469L887.659,345.469C886.977,345.469 885.955,346.156 885.273,346.5L874.364,357.844C873.341,358.875 873.341,359.562 873.682,359.906C873.682,360.25 874.364,360.938 875.727,360.938L881.864,360.938L881.864,371.25L874.364,371.25C866.864,371.25 860.727,365.062 860.727,357.5C860.727,350.625 865.841,344.781 872.659,343.75C873.682,343.75 874.705,343.062 875.045,342.031C876.75,336.531 882.205,332.75 888,332.75C893.795,332.75 898.909,336.531 900.614,342.031C900.955,343.062 901.977,343.75 903,343.75C909.818,344.781 915.273,350.625 915.273,357.5C915.273,365.062 909.136,371.25 901.636,371.25Z" style="fill:rgb(226,0,116);"/>
    </g>
</svg>
