<?xml version="1.0" encoding="UTF-8" standalone="no"?>
<!DOCTYPE svg PUBLIC "-//W3C//DTD SVG 1.1//EN" "http://www.w3.org/Graphics/SVG/1.1/DTD/svg11.dtd">
<svg width="100%" height="100%" viewBox="0 0 80 70" version="1.1" xmlns="http://www.w3.org/2000/svg" xmlns:xlink="http://www.w3.org/1999/xlink" xml:space="preserve" xmlns:serif="http://www.serif.com/" style="fill-rule:evenodd;clip-rule:evenodd;stroke-linejoin:round;stroke-miterlimit:2;">
    <g transform="matrix(1.42857,0,0,1.42857,-1584.29,-720)">
        <path d="M1136.68,525.921C1136.68,525.599 1136.36,525.599 1136.05,525.921C1135.73,525.921 1135.73,525.921 1135.73,526.243L1135.73,552.355C1135.73,553 1135.73,553 1136.36,553C1136.68,553 1137,553 1137,552.355L1137,527.855L1142.73,534.625C1143.05,534.947 1143.36,534.947 1143.68,534.625C1144,534.303 1144,533.98 1143.68,533.658L1136.68,525.921ZM1151.64,514.316C1149.09,508.191 1143.36,504 1137,504C1130.32,504 1124.59,508.191 1122.36,514.316C1114.73,515.283 1109,522.053 1109,529.789C1109,538.816 1116,545.908 1124.91,545.908C1125.55,545.908 1126.18,545.263 1126.18,544.618C1126.18,543.974 1125.55,543.329 1124.91,543.329C1117.27,543.329 1111.55,537.204 1111.55,529.789C1111.55,523.02 1116.64,517.539 1123.32,516.572C1123.64,516.572 1124.27,516.25 1124.27,515.605C1126.18,510.447 1131.27,506.579 1137,506.579C1142.73,506.579 1147.5,510.447 1149.41,515.605C1149.73,516.25 1150.05,516.572 1150.36,516.572C1157.36,517.539 1162.45,523.02 1162.45,529.789C1162.45,537.204 1156.41,543.329 1149.09,543.329C1148.14,543.329 1147.82,543.974 1147.82,544.618C1147.82,545.263 1148.14,545.908 1149.09,545.908C1157.68,545.908 1165,538.816 1165,529.789C1165,522.053 1159.27,515.283 1151.64,514.316Z" style="fill:rgb(226,0,116);"/>
    </g>
</svg>
