<?xml version="1.0" encoding="UTF-8" standalone="no"?>
<!DOCTYPE svg PUBLIC "-//W3C//DTD SVG 1.1//EN" "http://www.w3.org/Graphics/SVG/1.1/DTD/svg11.dtd">
<svg width="100%" height="100%" viewBox="0 0 80 80" version="1.1" xmlns="http://www.w3.org/2000/svg" xmlns:xlink="http://www.w3.org/1999/xlink" xml:space="preserve" xmlns:serif="http://www.serif.com/" style="fill-rule:evenodd;clip-rule:evenodd;stroke-linejoin:round;stroke-miterlimit:2;">
    <g transform="matrix(1.63265,0,0,1.63265,-453.878,-248.739)">
        <path d="M324.216,177.469L315.585,172.486L315.585,161.966C315.585,160.305 314.193,158.09 312.523,156.983L305.562,153.107C303.892,152 301.386,152 299.716,153.107L292.477,156.983C290.807,158.09 289.693,160.305 289.693,161.966L289.693,172.486L281.062,177.469C279.392,178.576 278,180.791 278,182.452L278,191.311C278,193.249 279.392,195.186 281.062,196.294L288.023,200.446C288.858,200.723 289.972,201 291.085,201C291.92,201 293.034,200.723 293.869,200.446L302.5,195.463L311.409,200.446C312.244,200.723 313.08,201 314.193,201C315.307,201 316.142,200.723 316.977,200.446L324.216,196.294C325.886,195.463 327,193.249 327,191.311L327,182.452C327,180.791 325.886,178.576 324.216,177.469ZM293.869,159.198L300.83,155.322C301.665,154.768 303.335,154.768 304.17,155.322L311.409,159.198C312.244,159.751 312.801,161.136 312.801,161.966L312.801,173.316L304.449,178.023C303.892,177.746 303.335,177.192 302.5,177.192C301.943,177.192 301.108,177.746 300.83,178.023L300.551,178.023L292.199,173.316L292.199,161.966C292.199,161.136 293.034,159.751 293.869,159.198ZM292.477,197.955C291.642,198.508 290.25,198.508 289.415,197.955L282.176,194.079C281.341,193.525 280.784,192.141 280.784,191.311L280.784,182.452C280.784,181.621 281.341,180.237 282.176,179.684L291.642,174.424L299.994,179.13L299.994,179.96C299.994,181.068 300.83,182.175 301.943,182.452L301.943,192.695L292.477,197.955ZM324.494,191.311C324.494,192.141 323.659,193.525 322.824,194.079L315.864,198.232C315.028,198.508 313.358,198.508 312.523,198.232L303.335,192.695L303.335,182.452C304.449,182.175 305.006,181.068 305.006,179.96L305.006,179.13L313.636,174.424L322.824,179.96C323.659,180.237 324.494,181.621 324.494,182.452L324.494,191.311Z" style="fill:rgb(226,0,116);"/>
    </g>
</svg>
