<?xml version="1.0" encoding="UTF-8" standalone="no"?>
<!DOCTYPE svg PUBLIC "-//W3C//DTD SVG 1.1//EN" "http://www.w3.org/Graphics/SVG/1.1/DTD/svg11.dtd">
<svg width="100%" height="100%" viewBox="0 0 72 80" version="1.1" xmlns="http://www.w3.org/2000/svg" xmlns:xlink="http://www.w3.org/1999/xlink" xml:space="preserve" xmlns:serif="http://www.serif.com/" style="fill-rule:evenodd;clip-rule:evenodd;stroke-linejoin:round;stroke-miterlimit:2;">
    <g transform="matrix(2.10623,0,0,2.10623,-14.7496,-10.5496)">
        <path d="M39.5,13.41L25.5,5.41C24.573,4.875 23.427,4.875 22.5,5.41L8.5,13.41C7.575,13.944 7.003,14.932 7,16L7,32C7.003,33.068 7.575,34.056 8.5,34.59L22.5,42.59C23.427,43.125 24.573,43.125 25.5,42.59L39.5,34.59C40.425,34.056 40.997,33.068 41,32L41,16C40.997,14.932 40.425,13.944 39.5,13.41ZM38.5,32.86L25,40.58L25,28.5C25,27.951 24.549,27.5 24,27.5C23.451,27.5 23,27.951 23,28.5L23,40.58L9.5,32.86C9.193,32.683 9.002,32.355 9,32L9,16.78L19.58,22.63C19.732,22.717 19.905,22.763 20.08,22.763C20.633,22.763 21.088,22.308 21.088,21.755C21.088,21.394 20.894,21.059 20.58,20.88L9.83,15L23.51,7.13C23.819,6.952 24.201,6.952 24.51,7.13L38.22,15L27.58,20.9C27.266,21.079 27.072,21.414 27.072,21.775C27.072,22.328 27.527,22.783 28.08,22.783C28.255,22.783 28.428,22.737 28.58,22.65L39,16.84L39,32C38.998,32.355 38.807,32.683 38.5,32.86Z" style="fill:rgb(226,0,116);fill-rule:nonzero;"/>
        <path d="M32.5,26C31.659,26.01 30.86,26.373 30.3,27L24.54,23.6L24.54,16.93C25.977,16.687 27.04,15.43 27.04,13.972C27.04,12.326 25.686,10.972 24.04,10.972C22.394,10.972 21.04,12.326 21.04,13.972C21.04,15.43 22.103,16.687 23.54,16.93L23.54,23.6L17.86,27.19C17.292,26.466 16.421,26.043 15.5,26.043C13.855,26.043 12.5,27.397 12.5,29.043C12.5,30.688 13.855,32.043 15.5,32.043C17.146,32.043 18.5,30.688 18.5,29.043L18.5,29C18.497,28.68 18.443,28.363 18.34,28.06L24,24.46L29.7,27.83C29.556,28.203 29.488,28.601 29.5,29C29.5,30.646 30.854,32 32.5,32C34.146,32 35.5,30.646 35.5,29C35.5,27.354 34.146,26 32.5,26ZM15.5,31C14.403,31 13.5,30.097 13.5,29C13.5,27.903 14.403,27 15.5,27C16.597,27 17.5,27.903 17.5,29C17.5,30.097 16.597,31 15.5,31ZM24,16C22.903,16 22,15.097 22,14C22,12.903 22.903,12 24,12C25.097,12 26,12.903 26,14C26,15.097 25.097,16 24,16ZM32.5,31C31.403,31 30.5,30.097 30.5,29C30.5,27.903 31.403,27 32.5,27C33.597,27 34.5,27.903 34.5,29C34.5,30.097 33.597,31 32.5,31Z" style="fill:rgb(226,0,116);fill-rule:nonzero;"/>
    </g>
</svg>
