<?xml version="1.0" encoding="UTF-8" standalone="no"?>
<!DOCTYPE svg PUBLIC "-//W3C//DTD SVG 1.1//EN" "http://www.w3.org/Graphics/SVG/1.1/DTD/svg11.dtd">
<svg width="100%" height="100%" viewBox="0 0 80 76" version="1.1" xmlns="http://www.w3.org/2000/svg" xmlns:xlink="http://www.w3.org/1999/xlink" xml:space="preserve" xmlns:serif="http://www.serif.com/" style="fill-rule:evenodd;clip-rule:evenodd;stroke-linejoin:round;stroke-miterlimit:2;">
    <g transform="matrix(1.56863,0,0,1.56863,-1796.08,-243.084)">
        <path d="M1148.21,172.032C1148.54,172.032 1148.87,171.788 1148.87,171.38C1148.87,171.054 1148.54,170.81 1148.21,170.81C1146.89,170.81 1146.15,170.973 1145.66,171.462C1145,172.114 1145,173.092 1145,174.559L1145,183.441C1145,184.908 1145,185.805 1145.66,186.538C1146.15,187.027 1146.89,187.19 1148.21,187.19C1148.54,187.19 1148.87,186.946 1148.87,186.538C1148.87,186.212 1148.54,185.968 1148.21,185.968C1147.3,185.968 1146.81,185.805 1146.56,185.642C1146.23,185.316 1146.23,184.582 1146.32,183.441L1146.32,174.559C1146.23,173.418 1146.23,172.684 1146.56,172.358C1146.81,172.195 1147.3,172.032 1148.21,172.032M1154.54,164.453C1154.95,164.453 1155.2,164.209 1155.2,163.801C1155.2,163.475 1154.95,163.231 1154.54,163.231C1151.75,163.231 1150.1,165.268 1150.1,168.854L1150.1,189.065C1150.1,192.732 1151.75,194.769 1154.54,194.769C1154.95,194.769 1155.2,194.525 1155.2,194.117C1155.2,193.791 1154.95,193.547 1154.54,193.547C1152.49,193.547 1151.42,191.998 1151.42,189.065L1151.42,168.854C1151.42,165.92 1152.49,164.453 1154.54,164.453M1196,182.219L1196,174.559C1196,173.092 1196,172.114 1195.34,171.462C1194.85,170.973 1194.11,170.81 1192.79,170.81C1192.46,170.81 1192.13,171.054 1192.13,171.38C1192.13,171.788 1192.46,172.032 1192.79,172.032C1193.7,172.032 1194.27,172.195 1194.44,172.358C1194.77,172.684 1194.77,173.418 1194.68,174.559L1194.68,182.219C1194.77,183.686 1194.77,184.99 1194.19,185.56C1193.94,185.805 1193.45,185.968 1192.79,185.968C1192.46,185.968 1192.13,186.212 1192.13,186.538C1192.13,186.946 1192.46,187.19 1192.79,187.19C1193.78,187.19 1194.52,186.946 1195.1,186.457C1196,185.479 1196,183.93 1196,182.219M1176.83,155L1164.17,155C1160.14,155 1157.75,156.874 1157.75,160.053L1157.75,196.643C1157.75,200.148 1160.63,203 1164.17,203L1176.83,203C1180.37,203 1183.25,200.148 1183.25,196.643L1183.25,160.053C1183.25,156.874 1180.86,155 1176.83,155M1180.7,196.643C1180.7,198.762 1178.97,200.474 1176.83,200.474L1164.17,200.474C1162.03,200.474 1160.3,198.762 1160.3,196.643L1160.3,160.053C1160.3,159.401 1160.3,157.526 1164.17,157.526L1176.83,157.526C1180.7,157.526 1180.7,159.401 1180.7,160.053L1180.7,196.643ZM1186.46,163.231C1186.05,163.231 1185.8,163.475 1185.8,163.801C1185.8,164.209 1186.05,164.453 1186.46,164.453C1188.51,164.453 1189.58,165.92 1189.58,168.854L1189.58,189.065C1189.58,191.998 1188.51,193.547 1186.46,193.547C1186.05,193.547 1185.8,193.791 1185.8,194.117C1185.8,194.525 1186.05,194.769 1186.46,194.769C1189.25,194.769 1190.9,192.732 1190.9,189.065L1190.9,168.854C1190.9,165.268 1189.25,163.231 1186.46,163.231" style="fill:rgb(226,0,116);"/>
    </g>
</svg>
