<?xml version="1.0" encoding="UTF-8" standalone="no"?>
<!DOCTYPE svg PUBLIC "-//W3C//DTD SVG 1.1//EN" "http://www.w3.org/Graphics/SVG/1.1/DTD/svg11.dtd">
<svg width="100%" height="100%" viewBox="0 0 73 80" version="1.1" xmlns="http://www.w3.org/2000/svg" xmlns:xlink="http://www.w3.org/1999/xlink" xml:space="preserve" xmlns:serif="http://www.serif.com/" style="fill-rule:evenodd;clip-rule:evenodd;stroke-linejoin:round;stroke-miterlimit:2;">
    <g transform="matrix(1.82232,0,0,1.82232,-7.28576,-3.64465)">
        <path d="M40.4,10.3L27.6,2.9C25.6,1.7 22.5,1.7 20.4,2.9L7.6,10.3C5.6,11.5 4,14.2 4,16.5L4,31.4C4,33.8 5.5,36.4 7.6,37.6L20.4,45C21.4,45.6 22.7,45.9 24,45.9C25.3,45.9 26.6,45.6 27.6,45L40.4,37.6C42.4,36.4 44,33.7 44,31.4L44,16.5C44,14.2 42.5,11.5 40.4,10.3ZM6,31.5L6,16.6C6,15 7.2,12.9 8.6,12.1L11.4,10.5L17.3,14C18.4,14.6 19,15.8 19,17L19,31.1C19,32.3 18.3,33.5 17.3,34.1L11.4,37.6L8.6,36C7.2,35.1 6,33.1 6,31.5ZM42,31.5C42,33.1 40.8,35.2 39.4,36L36.6,37.6L35.8,37C35.6,36.9 35.3,36.9 35.1,37.2C35,37.4 35,37.7 35.3,37.9L35.7,38.1L26.6,43.3C25.2,44.1 22.8,44.1 21.4,43.3L12.4,38.1L17.8,34.9C19.2,34.1 20,32.6 20,31L20,16.9C20,15.3 19.1,13.8 17.8,13L12.4,9.8L21.5,4.6C22.1,4.2 23.1,4 24,4C24.9,4 25.9,4.2 26.6,4.6L35.6,9.8L35.1,10.1C34.9,10.2 34.8,10.5 34.9,10.8C35,11 35.2,11 35.3,11C35.4,11 35.5,11 35.6,10.9L36.6,10.3L39.4,11.9C40.8,12.7 42,14.7 42,16.4L42,31.5Z" style="fill:rgb(226,0,116);fill-rule:nonzero;"/>
        <path d="M28.5,23.6C28.8,23.6 29,23.4 29,23.1L29,21.1C29,20.8 28.8,20.6 28.5,20.6C28.2,20.6 28,20.8 28,21.1L28,23.1C28,23.3 28.2,23.6 28.5,23.6Z" style="fill:rgb(226,0,116);fill-rule:nonzero;"/>
        <path d="M28.5,19.6C28.8,19.6 29,19.4 29,19.1L29,17.1C29,16.8 28.8,16.6 28.5,16.6C28.2,16.6 28,16.8 28,17.1L28,19.1C28,19.3 28.2,19.6 28.5,19.6Z" style="fill:rgb(226,0,116);fill-rule:nonzero;"/>
        <path d="M28.7,15.6C28.8,15.6 28.8,15.7 28.9,15.7C29.1,15.7 29.3,15.6 29.3,15.4C29.6,14.9 30,14.4 30.4,14.1C30.6,13.9 30.7,13.6 30.5,13.4C30.3,13.2 30,13.1 29.8,13.3C29.2,13.7 28.7,14.3 28.3,15C28.4,15.2 28.5,15.5 28.7,15.6Z" style="fill:rgb(226,0,116);fill-rule:nonzero;"/>
        <path d="M29,31.1L29,29.1C29,28.8 28.8,28.6 28.5,28.6C28.2,28.6 28,28.8 28,29.1L28,31.1C28,31.4 28.2,31.6 28.5,31.6C28.8,31.6 29,31.3 29,31.1Z" style="fill:rgb(226,0,116);fill-rule:nonzero;"/>
        <path d="M34,36L32.3,35C32.1,34.9 31.8,34.9 31.6,35.2C31.5,35.4 31.5,35.7 31.8,35.9L33.5,36.9C33.6,36.9 33.7,37 33.8,37C34,37 34.1,36.9 34.2,36.8C34.4,36.5 34.3,36.2 34,36Z" style="fill:rgb(226,0,116);fill-rule:nonzero;"/>
        <path d="M32.2,13L33.9,12C34.1,11.9 34.2,11.6 34.1,11.3C34,11.1 33.6,11 33.4,11.1L31.7,12.1C31.5,12.2 31.4,12.5 31.5,12.8C31.6,13 31.8,13 31.9,13C32,13.1 32.1,13.1 32.2,13Z" style="fill:rgb(226,0,116);fill-rule:nonzero;"/>
        <path d="M30.6,34C30.1,33.7 29.7,33.2 29.4,32.7C29.3,32.5 29,32.4 28.7,32.5C28.5,32.6 28.4,32.9 28.5,33.2C28.9,33.9 29.4,34.4 30,34.8C30.1,34.9 30.2,34.9 30.3,34.9C30.5,34.9 30.6,34.8 30.7,34.7C30.9,34.5 30.8,34.2 30.6,34Z" style="fill:rgb(226,0,116);fill-rule:nonzero;"/>
        <path d="M28.5,27.6C28.8,27.6 29,27.4 29,27.1L29,25.1C29,24.8 28.8,24.6 28.5,24.6C28.2,24.6 28,24.8 28,25.1L28,27.1C28,27.3 28.2,27.6 28.5,27.6Z" style="fill:rgb(226,0,116);fill-rule:nonzero;"/>
    </g>
</svg>
