<?xml version="1.0" encoding="UTF-8" standalone="no"?>
<!DOCTYPE svg PUBLIC "-//W3C//DTD SVG 1.1//EN" "http://www.w3.org/Graphics/SVG/1.1/DTD/svg11.dtd">
<svg width="100%" height="100%" viewBox="0 0 80 65" version="1.1" xmlns="http://www.w3.org/2000/svg" xmlns:xlink="http://www.w3.org/1999/xlink" xml:space="preserve" xmlns:serif="http://www.serif.com/" style="fill-rule:evenodd;clip-rule:evenodd;stroke-linejoin:round;stroke-miterlimit:2;">
    <g transform="matrix(1.56863,0,0,1.56863,-1242.35,-796.87)">
        <path d="M838.364,512.556L812.864,512.556L808.227,508L796.636,508C794.028,508 792,510.278 792,512.556L792,544.444C792,547.007 794.028,549 796.636,549L838.364,549C840.682,549 843,547.007 843,544.444L843,517.111C843,514.833 840.682,512.556 838.364,512.556ZM840.682,544.444C840.682,545.868 839.523,546.722 838.364,546.722L796.636,546.722C795.188,546.722 794.318,545.868 794.318,544.444L794.318,522.236L840.682,522.236L840.682,544.444ZM840.682,521.097L794.318,521.097L794.318,512.556C794.318,511.417 795.188,510.278 796.636,510.278L807.068,510.278L811.125,514.264L811.705,514.833L838.364,514.833C839.523,514.833 840.682,515.972 840.682,517.111L840.682,521.097Z" style="fill:rgb(226,0,116);"/>
    </g>
</svg>
