<?xml version="1.0" encoding="UTF-8" standalone="no"?>
<!DOCTYPE svg PUBLIC "-//W3C//DTD SVG 1.1//EN" "http://www.w3.org/Graphics/SVG/1.1/DTD/svg11.dtd">
<svg width="100%" height="100%" viewBox="0 0 80 59" version="1.1" xmlns="http://www.w3.org/2000/svg" xmlns:xlink="http://www.w3.org/1999/xlink" xml:space="preserve" xmlns:serif="http://www.serif.com/" style="fill-rule:evenodd;clip-rule:evenodd;stroke-linejoin:round;stroke-miterlimit:2;">
    <g transform="matrix(0.0852878,0,0,0.0852878,-3.66738,-14.5674)">
        <path d="M695,448L331,448C322.333,448 314.833,451.167 308.5,457.5C302.167,463.833 299,471.333 299,480L299,693C299,701.667 302.167,709.167 308.5,715.5C314.833,721.833 322.333,725 331,725L695,725C703.667,725 710.833,721.833 716.5,715.5C722.167,709.167 725,701.667 725,693L725,480C725,471.333 722.167,463.833 716.5,457.5C710.833,451.167 703.667,448 695,448ZM704,693C704,696.333 703.167,699 701.5,701C699.833,703 697.667,704 695,704L331,704C328.333,704 325.833,703 323.5,701C321.167,699 320,696.333 320,693L320,529L508,608L516,608L704,529L704,693ZM704,506L512,587L320,506L320,480C320,476.667 321,474 323,472C325,470 327.667,469 331,469L695,469C697.667,469 699.833,470 701.5,472C703.167,474 704,476.667 704,480L704,506ZM753,343C744.333,318.333 732.333,295.333 717,274C701.667,252.667 683.5,234.333 662.5,219C641.5,203.667 618.333,192 593,184C567,175.333 540,171 512,171C484,171 457,175.333 431,184C405.667,192 382.5,203.667 361.5,219C340.5,234.333 322.333,252.667 307,274C291.667,295.333 279.667,318.333 271,343C239,346.333 209,355.333 181,370C153.667,384.667 129.667,403.333 109,426C88.333,448.667 72,474.667 60,504C48.667,533.333 43,564.333 43,597C43,632.333 49.667,665.667 63,697C76.333,727.667 94.667,754.667 118,778C141.333,801.333 168.333,819.667 199,833C230.333,846.333 263.667,853 299,853L725,853C760.333,853 793.667,846.333 825,833C855.667,819.667 882.667,801.333 906,778C929.333,754.667 947.667,727.667 961,697C974.333,665.667 981,632.333 981,597C981,564.333 975.333,533.333 964,504C952,474.667 935.667,448.667 915,426C894.333,403.333 870.333,384.667 843,370C815,355.333 785,346.333 753,343ZM725,811L299,811C269.667,811 242,805.333 216,794C190,782.667 167.333,767.333 148,748C128.667,728.667 113.333,706 102,680C90.667,654 85,626.333 85,597C85,570.333 90,544.667 100,520C109.333,495.333 122.5,473.667 139.5,455C156.5,436.333 176.667,420.667 200,408C222.667,396 247.667,388.667 275,386C283.667,385.333 291.167,382.5 297.5,377.5C303.833,372.5 308.333,366 311,358C326.333,315.333 352.5,280.833 389.5,254.5C426.5,228.167 467.333,215 512,215C556.667,215 597.5,228.167 634.5,254.5C671.5,280.833 697.667,315.333 713,358C715.667,366 720.167,372.5 726.5,377.5C732.833,382.5 740.333,385.333 749,386C776.333,389.333 801.333,397 824,409C847.333,421.667 867.5,437.333 884.5,456C901.5,474.667 914.667,496 924,520C934,544.667 939,570.333 939,597C939,626.333 933.333,654 922,680C910.667,706 895.333,728.667 876,748C856.667,767.333 834,782.667 808,794C782,805.333 754.333,811 725,811Z" style="fill:rgb(226,0,116);fill-rule:nonzero;"/>
    </g>
</svg>
