<?xml version="1.0" encoding="UTF-8" standalone="no"?>
<!DOCTYPE svg PUBLIC "-//W3C//DTD SVG 1.1//EN" "http://www.w3.org/Graphics/SVG/1.1/DTD/svg11.dtd">
<svg width="100%" height="100%" viewBox="0 0 80 63" version="1.1" xmlns="http://www.w3.org/2000/svg" xmlns:xlink="http://www.w3.org/1999/xlink" xml:space="preserve" xmlns:serif="http://www.serif.com/" style="fill-rule:evenodd;clip-rule:evenodd;stroke-linejoin:round;stroke-miterlimit:2;">
    <g transform="matrix(1.77778,0,0,1.77778,-1040,-597.294)">
        <path d="M626.932,336L588.068,336C586.534,336 585,337.287 585,338.831L585,368.169C585,369.713 586.534,371 588.068,371L626.932,371C628.722,371 630,369.713 630,368.169L630,338.831C630,337.287 628.722,336 626.932,336ZM627.955,368.169C627.955,368.684 627.699,369.199 626.932,369.199L588.068,369.199C587.557,369.199 587.045,368.684 587.045,368.169L587.045,346.294L605.966,354.272C606.477,354.529 606.989,354.787 607.5,354.787C608.267,354.787 608.778,354.529 609.29,354.272L627.955,346.294L627.955,368.169ZM627.955,345.265L608.778,353.5C608.267,353.757 607.244,354.015 606.477,353.5L587.045,345.265L587.045,338.831C587.045,338.316 587.557,338.059 588.068,338.059L626.932,338.059C627.699,338.059 627.955,338.316 627.955,338.831L627.955,345.265Z" style="fill:rgb(226,0,116);"/>
    </g>
</svg>
