<?xml version="1.0" encoding="UTF-8" standalone="no"?>
<!DOCTYPE svg PUBLIC "-//W3C//DTD SVG 1.1//EN" "http://www.w3.org/Graphics/SVG/1.1/DTD/svg11.dtd">
<svg width="100%" height="100%" viewBox="0 0 80 80" version="1.1" xmlns="http://www.w3.org/2000/svg" xmlns:xlink="http://www.w3.org/1999/xlink" xml:space="preserve" xmlns:serif="http://www.serif.com/" style="fill-rule:evenodd;clip-rule:evenodd;stroke-linejoin:round;stroke-miterlimit:2;">
    <g transform="matrix(2.22222,0,0,2.22222,0,-0.000555556)">
        <g id="Layer-1" serif:id="Layer 1">
            <path id="path93" d="M19.636,25.364L19.636,21.273L11.455,21.273L11.455,17.182L7.364,17.182L7.364,12.273L28.636,12.273L28.636,17.182L24.545,17.182L24.545,25.364L19.636,25.364ZM11.455,13.091L8.182,13.091L8.182,16.364L11.455,16.364L11.455,13.091ZM15.545,13.091L12.273,13.091L12.273,16.364L15.545,16.364L15.545,13.091ZM15.545,17.182L12.273,17.182L12.273,20.455L15.545,20.455L15.545,17.182ZM19.636,13.091L16.364,13.091L16.364,16.364L19.636,16.364L19.636,13.091ZM19.636,17.182L16.364,17.182L16.364,20.455L19.636,20.455L19.636,17.182ZM23.727,13.091L20.455,13.091L20.455,16.364L23.727,16.364L23.727,13.091ZM23.727,17.182L20.455,17.182L20.455,20.455L23.727,20.455L23.727,17.182ZM23.727,21.273L20.455,21.273L20.455,24.545L23.727,24.545L23.727,21.273ZM27.818,16.364L27.818,13.091L24.545,13.091L24.545,16.364L27.818,16.364ZM34.364,21.109L34.364,24.136C34.364,26.1 33.136,28.227 31.418,29.209L20.945,35.264C19.227,36.246 16.773,36.246 15.055,35.264L4.582,29.209C2.945,28.227 1.636,26.018 1.636,24.136L1.636,21.273C1.636,20.782 1.964,20.455 2.455,20.455C2.945,20.455 3.273,20.782 3.273,21.273L3.273,24.136C3.273,25.445 4.255,27.164 5.4,27.818L15.873,33.873C17.018,34.527 18.982,34.527 20.127,33.873L30.6,27.818C31.745,27.164 32.727,25.527 32.727,24.136L32.727,21.109C31.745,20.782 31.091,19.882 31.091,18.818C31.091,17.427 32.155,16.364 33.545,16.364C34.936,16.364 36,17.427 36,18.818C36,19.882 35.264,20.782 34.364,21.109ZM33.545,17.182C32.645,17.182 31.909,17.918 31.909,18.818C31.909,19.718 32.645,20.455 33.545,20.455C34.445,20.455 35.182,19.718 35.182,18.818C35.182,17.918 34.445,17.182 33.545,17.182ZM33.545,14.645C33.055,14.645 32.727,14.318 32.727,13.827L32.727,11.864C32.727,10.555 31.745,8.836 30.6,8.182L20.127,2.127C18.982,1.473 17.018,1.473 15.873,2.127L5.4,8.264C4.255,8.918 3.273,10.555 3.273,11.864L3.273,14.073C4.255,14.4 4.909,15.3 4.909,16.364C4.909,17.755 3.845,18.818 2.455,18.818C1.064,18.818 0,17.755 0,16.364C0,15.3 0.736,14.4 1.636,14.073L1.636,11.864C1.636,9.9 2.864,7.773 4.582,6.791L15.055,0.736C15.873,0.245 16.936,0 18,0C19.064,0 20.127,0.245 20.945,0.736L31.418,6.791C33.055,7.773 34.364,9.982 34.364,11.864L34.364,13.827C34.364,14.318 34.036,14.645 33.545,14.645ZM0.818,16.364C0.818,17.264 1.555,18 2.455,18C3.355,18 4.091,17.264 4.091,16.364C4.091,15.464 3.355,14.727 2.455,14.727C1.555,14.727 0.818,15.464 0.818,16.364Z" style="fill:rgb(226,0,116);fill-rule:nonzero;"/>
        </g>
    </g>
</svg>
