<?xml version="1.0" encoding="UTF-8" standalone="no"?>
<!DOCTYPE svg PUBLIC "-//W3C//DTD SVG 1.1//EN" "http://www.w3.org/Graphics/SVG/1.1/DTD/svg11.dtd">
<svg width="100%" height="100%" viewBox="0 0 80 80" version="1.1" xmlns="http://www.w3.org/2000/svg" xmlns:xlink="http://www.w3.org/1999/xlink" xml:space="preserve" xmlns:serif="http://www.serif.com/" style="fill-rule:evenodd;clip-rule:evenodd;stroke-linejoin:round;stroke-miterlimit:2;">
    <g transform="matrix(1.66667,0,0,1.66667,-681.667,-255)">
        <path d="M427.474,165.231C427.474,164.524 426.932,164.035 426.282,164.035C425.632,164.035 425.09,164.524 425.09,165.231C425.09,165.883 425.632,166.427 426.282,166.427C426.932,166.427 427.474,165.883 427.474,165.231ZM438.743,165.285C438.634,165.122 438.472,165.014 438.255,164.959L435.059,164.905L433.217,161.861C433.108,161.698 432.946,161.589 432.729,161.589L424.549,161.317C424.278,161.263 424.061,161.426 423.953,161.643L420.106,168.873C419.998,169.091 419.998,169.308 420.106,169.525L428.666,184.42C428.774,184.638 428.991,184.746 429.208,184.746C429.316,184.746 429.424,184.692 429.533,184.638L431.646,183.442L434.192,187.845C434.3,188.062 434.517,188.171 434.734,188.171C434.842,188.171 434.95,188.117 435.059,188.062L447.14,181.104C447.248,180.995 447.357,180.887 447.411,180.724C447.465,180.561 447.465,180.398 447.357,180.234L438.743,165.285ZM429.479,183.224L421.352,169.145L424.874,162.567L432.35,162.839L433.542,164.851L430.02,164.742C429.804,164.687 429.587,164.851 429.479,165.068L425.578,172.298C425.524,172.515 425.524,172.733 425.632,172.896L431.05,182.354L429.479,183.224ZM435.005,186.649L426.878,172.57L430.4,165.992L437.822,166.264L445.948,180.343L435.005,186.649ZM453.208,153L412.792,153C410.734,153 409,154.685 409,156.805L409,184.964C409,186.812 410.246,188.932 411.871,189.856L430.183,200.348C430.941,200.783 431.971,201 433,201C434.029,201 435.059,200.783 435.817,200.348L454.183,189.856C455.754,188.932 457,186.812 457,184.964L457,156.805C457,154.685 455.321,153 453.208,153ZM454.454,184.964C454.454,185.888 453.749,187.193 452.937,187.682L434.571,198.119C433.813,198.608 432.242,198.608 431.429,198.119L413.117,187.682C412.305,187.193 411.546,185.888 411.546,184.964L411.546,156.805C411.546,156.099 412.088,155.555 412.792,155.555L453.208,155.555C453.912,155.555 454.454,156.099 454.454,156.805L454.454,184.964ZM432.296,167.732C431.429,167.732 430.725,168.438 430.725,169.308C430.725,170.178 431.429,170.884 432.296,170.884C433.163,170.884 433.867,170.178 433.867,169.308C433.867,168.438 433.163,167.732 432.296,167.732Z" style="fill:rgb(226,0,116);"/>
    </g>
</svg>
