<?xml version="1.0" encoding="UTF-8" standalone="no"?>
<!DOCTYPE svg PUBLIC "-//W3C//DTD SVG 1.1//EN" "http://www.w3.org/Graphics/SVG/1.1/DTD/svg11.dtd">
<svg width="100%" height="100%" viewBox="0 0 74 80" version="1.1" xmlns="http://www.w3.org/2000/svg" xmlns:xlink="http://www.w3.org/1999/xlink" xml:space="preserve" xmlns:serif="http://www.serif.com/" style="fill-rule:evenodd;clip-rule:evenodd;stroke-linejoin:round;stroke-miterlimit:2;">
    <g transform="matrix(1.6,0,0,1.6,-1158.4,-523.2)">
        <path d="M763,332.5C763,331.672 763.672,331 764.5,331C765.328,331 766,331.672 766,332.5C766,333.328 765.328,334 764.5,334C763.672,334 763,333.328 763,332.5Z" style="fill:rgb(226,0,116);"/>
        <path d="M730,339C730,337.895 730.672,337 731.5,337C732.328,337 733,337.895 733,339C733,340.105 732.328,341 731.5,341C730.672,341 730,340.105 730,339Z" style="fill:rgb(226,0,116);"/>
        <path d="M749,339C749,337.895 749.895,337 751,337C752.105,337 753,337.895 753,339C753,340.105 752.105,341 751,341C749.895,341 749,340.105 749,339Z" style="fill:rgb(226,0,116);"/>
        <path d="M745.148,352.676C744.556,351.189 743.074,350 741,350C739.222,350 737.444,351.189 736.852,352.676C734.778,352.973 733,354.757 733,356.838C733,359.216 735.074,361 737.444,361L744.852,361C747.222,361 749,359.216 749,356.838C749,354.757 747.518,352.973 745.148,352.676ZM744.852,359.514L737.444,359.514C735.667,359.514 734.482,358.324 734.482,356.838C734.482,355.351 735.667,354.162 737.148,354.162C737.741,354.162 738.037,353.865 738.333,353.27C738.63,352.081 739.815,351.486 741,351.486C742.482,351.486 743.667,352.081 743.963,353.27C744.259,353.865 744.556,354.162 745.148,354.162C746.63,354.162 747.815,355.351 747.815,356.838C747.815,358.324 746.333,359.514 744.852,359.514Z" style="fill:rgb(226,0,116);"/>
        <path d="M752.347,332L730.364,332C726.893,332 724,334.812 724,338.188L724,370.812C724,374.188 726.893,377 730.364,377L752.347,377C756.107,377 759,374.188 759,370.812L759,338.188C759,334.812 756.107,332 752.347,332ZM756.397,370.812C756.397,372.781 754.661,374.469 752.347,374.469L730.364,374.469C728.339,374.469 726.603,372.781 726.603,370.812L726.603,338.188C726.603,336.219 728.339,334.531 730.364,334.531L752.347,334.531C754.661,334.531 756.397,336.219 756.397,338.188L756.397,370.812Z" style="fill:rgb(226,0,116);"/>
        <path d="M764.231,327L743.75,327C742.596,327 740.577,327.281 740,328.688C740,328.969 740,329.25 740.288,329.531C740.577,329.531 741.154,329.531 741.154,329.25C741.442,328.688 742.596,328.125 743.75,328.125L764.231,328.125C767.115,328.125 768.558,329.812 768.558,332.906L768.558,366.656C768.558,369.75 767.404,370.594 764.231,370.594L761.635,370.594C761.346,370.594 761.058,370.875 761.058,371.438C761.058,371.719 761.346,372 761.635,372L764.231,372C768.269,372 770,370.312 770,366.656L770,332.906C770,328.969 767.981,327 764.231,327Z" style="fill:rgb(226,0,116);"/>
        <path d="M761.429,352.571C761.214,352.571 761,352.857 761,353.429C761,353.714 761.214,354 761.429,354C762.929,354 764,352.286 764,350C764,348 762.929,346.286 761.643,346C761.214,346 761,346.286 761,346.571C761,347.143 761.214,347.429 761.429,347.429C762.286,347.429 762.929,348.857 762.929,350C762.929,351.429 762.286,352.571 761.429,352.571Z" style="fill:rgb(226,0,116);"/>
    </g>
</svg>
