<?xml version="1.0" encoding="UTF-8" standalone="no"?>
<!DOCTYPE svg PUBLIC "-//W3C//DTD SVG 1.1//EN" "http://www.w3.org/Graphics/SVG/1.1/DTD/svg11.dtd">
<svg width="100%" height="100%" viewBox="0 0 80 58" version="1.1" xmlns="http://www.w3.org/2000/svg" xmlns:xlink="http://www.w3.org/1999/xlink" xml:space="preserve" xmlns:serif="http://www.serif.com/" style="fill-rule:evenodd;clip-rule:evenodd;stroke-linejoin:round;stroke-miterlimit:2;">
    <g transform="matrix(1.63265,0,0,1.63265,-385.306,-277.572)">
        <path d="M273.028,178.75C271.358,173.828 266.347,170 260.5,170C254.653,170 249.642,173.828 247.693,178.75C241.011,179.57 236,185.039 236,191.875C236,199.258 241.847,205 249.364,205L271.636,205C278.875,205 285,199.258 285,191.875C285,185.039 279.71,179.57 273.028,178.75ZM259.943,183.125L259.943,183.672L252.705,191.328C252.705,191.055 252.426,191.055 252.148,191.055L249.364,180.391L259.943,183.125ZM271.636,202.812L249.364,202.812C243.239,202.812 238.227,197.891 238.227,191.875C238.227,186.406 242.403,181.758 247.972,180.938L248.528,180.938L251.034,191.328C250.756,191.602 250.477,192.148 250.477,192.695C250.477,193.516 251.034,194.336 252.148,194.336C252.983,194.336 253.818,193.516 253.818,192.695C253.818,192.422 253.54,192.148 253.54,191.875L260.778,184.492L261.614,184.492C262.449,184.492 263.284,183.672 263.284,182.852C263.284,182.031 262.449,181.211 261.614,181.211C261.057,181.211 260.5,181.484 260.222,182.031L249.92,179.297C251.591,175.195 255.767,172.188 260.5,172.188C265.233,172.188 269.409,175.195 270.801,179.57C271.08,180.391 271.915,180.938 272.75,180.938C278.318,181.758 282.773,186.406 282.773,191.875C282.773,197.891 277.761,202.812 271.636,202.812Z" style="fill:rgb(226,0,116);"/>
    </g>
</svg>
