<?xml version="1.0" encoding="UTF-8" standalone="no"?>
<!DOCTYPE svg PUBLIC "-//W3C//DTD SVG 1.1//EN" "http://www.w3.org/Graphics/SVG/1.1/DTD/svg11.dtd">
<svg width="100%" height="100%" viewBox="0 0 80 80" version="1.1" xmlns="http://www.w3.org/2000/svg" xmlns:xlink="http://www.w3.org/1999/xlink" xml:space="preserve" xmlns:serif="http://www.serif.com/" style="fill-rule:evenodd;clip-rule:evenodd;stroke-linejoin:round;stroke-miterlimit:2;">
    <g transform="matrix(1.81818,0,0,1.81818,-3.63636,-3.63636)">
        <path d="M24,2C11.931,2 2,11.931 2,24C2,36.069 11.931,46 24,46C36.069,46 46,36.069 46,24C46,11.931 36.069,2 24,2ZM24,44C13.028,44 4,34.972 4,24C4,13.028 13.028,4 24,4C34.972,4 44,13.028 44,24C44,34.972 34.972,44 24,44ZM36.5,21C34.743,20.946 33.215,22.255 33,24L29.5,24C29.325,23.999 29.161,24.09 29.07,24.24L28.97,24.32L23.97,29.32L23.97,18.495C23.97,18.221 23.744,17.995 23.47,17.995C23.294,17.995 23.13,18.088 23.04,18.24L22.94,18.32L17.32,24L12.93,24C12.703,23.12 11.903,22.5 10.994,22.5C9.896,22.5 8.994,23.403 8.994,24.5C8.994,25.597 9.896,26.5 10.994,26.5C11.903,26.5 12.703,25.88 12.93,25L17.5,25C17.675,25.001 17.839,24.91 17.93,24.76L18.03,24.68L23.03,19.68L23.03,30.505C23.03,30.779 23.256,31.005 23.53,31.005C23.706,31.005 23.87,30.912 23.96,30.76L24.06,30.68L29.68,25L33,25C33.252,26.704 34.73,27.98 36.453,27.98C38.367,27.98 39.943,26.405 39.943,24.49C39.943,22.575 38.367,21 36.453,21L36.45,21L36.5,21ZM36.5,26.25C35.54,26.25 34.75,25.46 34.75,24.5C34.75,23.54 35.54,22.75 36.5,22.75C37.46,22.75 38.25,23.54 38.25,24.5C38.245,25.458 37.458,26.245 36.5,26.25Z" style="fill:rgb(226,0,116);fill-rule:nonzero;"/>
    </g>
</svg>
