<?xml version="1.0" encoding="UTF-8" standalone="no"?>
<!DOCTYPE svg PUBLIC "-//W3C//DTD SVG 1.1//EN" "http://www.w3.org/Graphics/SVG/1.1/DTD/svg11.dtd">
<svg width="100%" height="100%" viewBox="0 0 80 79" version="1.1" xmlns="http://www.w3.org/2000/svg" xmlns:xlink="http://www.w3.org/1999/xlink" xml:space="preserve" xmlns:serif="http://www.serif.com/" style="fill-rule:evenodd;clip-rule:evenodd;stroke-linejoin:round;stroke-miterlimit:2;">
    <g transform="matrix(1.63265,0,0,1.63265,-785.306,-266.106)">
        <path d="M523,181L521.9,181L521.9,192.917L521.35,192.917C520.25,192.917 519.7,192.646 519.425,191.562L516.4,183.438C516.125,182.896 515.575,181 513.375,181L512,181L512,194L513.1,194L513.1,182.083L513.375,182.083C514.2,182.083 515.025,182.625 515.3,183.708L518.325,192.104L518.875,191.833L518.325,192.104C518.875,193.458 519.7,194 521.35,194L523,194L523,181Z" style="fill:rgb(226,0,116);"/>
        <path d="M505.5,163C491.858,163 481,173.909 481,187C481,200.364 491.858,211 505.5,211C518.864,211 530,200.364 530,187C530,173.909 518.864,163 505.5,163ZM488.239,197.636C489.631,200.364 491.858,202.818 494.642,204.455L495.199,203.364C492.693,202.273 491.023,200.364 489.631,197.909L524.71,197.909C520.812,204.455 513.574,208.818 505.5,208.818C493.25,208.818 483.227,199 483.227,187C483.227,183.455 484.062,180.182 485.455,177.182L522.483,177.182L522.205,176.364C520.812,173.636 518.585,171.182 515.801,169.545L515.244,170.636C517.472,172 519.42,173.909 520.812,176.091L486.29,176.091C489.909,169.545 497.148,165.182 505.5,165.182C517.75,165.182 527.773,175 527.773,187C527.773,190.545 526.938,193.818 525.267,196.818L487.682,196.818L488.239,197.636Z" style="fill:rgb(226,0,116);"/>
        <path d="M507.5,181L500,181L500,194L501.111,194L501.111,187.5L507.5,187.5C508.889,187.5 510,186.417 510,185.062L510,183.708C510,182.083 508.889,181 507.5,181ZM508.889,185.062C508.889,185.875 508.056,186.417 507.5,186.417L501.111,186.417L501.111,182.083L507.5,182.083C508.056,182.083 508.889,182.896 508.889,183.708L508.889,185.062Z" style="fill:rgb(226,0,116);"/>
        <path d="M494.7,190.391C494.15,191.435 493.6,191.957 492.775,191.957L492.225,191.957C491.125,191.957 490.575,191.435 490.3,190.391L488.1,181L487,181.261L489.2,190.652C489.475,191.174 490.025,192.739 491.95,193L493.05,193C494.975,192.739 495.525,191.174 495.8,190.652L498,181.261L496.9,181L494.7,190.391Z" style="fill:rgb(226,0,116);"/>
    </g>
</svg>
