<?xml version="1.0" encoding="UTF-8" standalone="no"?>
<!DOCTYPE svg PUBLIC "-//W3C//DTD SVG 1.1//EN" "http://www.w3.org/Graphics/SVG/1.1/DTD/svg11.dtd">
<svg width="100%" height="100%" viewBox="0 0 75 80" version="1.1" xmlns="http://www.w3.org/2000/svg" xmlns:xlink="http://www.w3.org/1999/xlink" xml:space="preserve" xmlns:serif="http://www.serif.com/" style="fill-rule:evenodd;clip-rule:evenodd;stroke-linejoin:round;stroke-miterlimit:2;">
    <g transform="matrix(1.56863,0,0,1.56863,-237.257,-528.627)">
        <path d="M187.075,353.807C182.602,353.227 178.429,350.909 176.64,349.17C176.043,348.881 175.745,348.881 175.447,348.881C175.149,348.881 174.553,348.881 174.255,349.17C172.168,350.909 167.994,353.227 163.82,353.807C163.224,354.097 162.627,355.256 162.627,355.835C162.627,356.125 162.925,356.705 162.925,357.284C163.224,360.182 163.522,364.818 166.503,368.585C168.59,371.483 171.87,374.381 174.851,375.83L176.043,375.83C178.727,374.381 182.006,371.483 184.093,368.585C186.776,365.108 187.373,360.182 187.671,357.284C187.969,356.705 187.969,356.125 187.969,355.835C187.969,355.256 187.671,354.097 187.075,353.807ZM163.82,355.545C163.82,355.545 164.118,355.256 164.118,354.966C166.503,354.676 168.888,353.807 170.975,352.648L170.975,356.994L164.118,356.994C164.118,356.705 164.118,356.125 163.82,355.545ZM164.118,358.153L180.814,358.153L180.814,366.557L166.801,366.557C165.012,363.659 164.416,360.761 164.118,358.153ZM170.975,371.483C169.783,370.324 168.59,369.165 167.696,368.006L167.398,367.716L170.975,367.716L170.975,371.483ZM183.199,368.006C181.112,370.614 178.13,373.222 175.447,374.67C175.447,374.67 175.149,374.67 175.447,374.67C174.255,374.091 173.36,373.511 172.168,372.642L172.168,367.716L183.199,367.716L183.199,368.006ZM184.093,366.557L182.006,366.557L182.006,358.153L186.478,358.153C186.18,360.761 185.584,363.659 184.093,366.557ZM186.478,356.994L172.168,356.994L172.168,352.068C173.36,351.489 174.255,350.909 175.149,350.04L175.745,350.04C177.832,352.068 182.006,354.097 186.478,354.966C186.776,355.256 186.776,355.545 186.776,355.545C186.478,356.125 186.478,356.705 186.478,356.994ZM196.317,346.852C193.932,345.983 188.863,344.534 186.478,343.085C181.41,340.767 179.323,339.028 177.534,337.869C176.938,337.29 176.043,337 175.149,337C174.255,337 173.36,337.29 172.466,337.869C170.677,339.028 168.888,340.767 163.82,343.085C161.137,344.534 156.366,345.983 153.683,346.852C152.193,347.432 151,348.881 151.298,350.619C151.596,355.545 153.087,365.977 156.366,372.352C159.944,379.597 169.484,385.392 173.062,387.42C173.658,388 174.553,388 175.149,388C175.745,388 176.342,388 176.938,387.42C180.814,385.392 190.056,379.597 193.932,372.352C197.211,365.977 198.404,355.545 199,350.619C199,348.881 198.106,347.432 196.317,346.852ZM191.845,371.193C189.46,375.83 184.093,380.756 175.745,385.392C175.447,385.682 175.149,385.682 175.149,385.682C174.851,385.682 174.553,385.682 174.553,385.392C166.205,380.756 160.839,375.83 158.453,371.193C155.174,364.818 153.981,353.517 153.683,350.33C153.683,349.46 154.28,349.17 154.578,349.17L155.472,348.881C158.155,347.722 162.329,346.562 164.714,345.403C169.484,343.085 171.571,341.347 173.36,340.188C173.658,339.898 173.658,339.898 173.957,339.608C174.255,339.608 174.553,339.318 174.851,339.318L175.149,339.318C175.745,339.318 176.043,339.608 176.043,339.608C176.342,339.898 176.64,339.898 176.938,340.188C178.727,341.347 180.814,343.085 185.286,345.403C187.671,346.562 191.845,347.722 194.826,348.881L195.72,349.17C195.72,349.17 196.615,349.46 196.615,350.33C196.317,353.517 195.124,364.818 191.845,371.193Z" style="fill:rgb(226,0,116);"/>
    </g>
</svg>
